<svg width="1110.000000" height="104.000000" viewBox="0 0 1110 104" fill="none" xmlns="http://www.w3.org/2000/svg" xmlns:xlink="http://www.w3.org/1999/xlink">
	<desc>
			Created with Pixso.
	</desc>
	<defs>
		<clipPath id="clip95_6250">
			<rect id="Frame" rx="-0.500000" width="52.000000" height="43.000000" transform="translate(37.500000 67.500000)" fill="white" fill-opacity="0"/>
		</clipPath>
		<filter id="filter_95_6258_dd" x="941.000000" y="47.000031" width="50.776245" height="47.561371" filterUnits="userSpaceOnUse" color-interpolation-filters="sRGB">
			<feFlood flood-opacity="0" result="BackgroundImageFix"/>
			<feBlend mode="normal" in="SourceGraphic" in2="BackgroundImageFix" result="shape"/>
			<feGaussianBlur stdDeviation="2" result="effect_layerBlur_1"/>
		</filter>
		<clipPath id="clip95_6258">
			<rect id="Frame" rx="-0.500000" width="30.687382" height="25.306505" transform="translate(977.274536 89.061401) rotate(-159.990005)" fill="white" fill-opacity="0"/>
		</clipPath>
		<clipPath id="clip95_6266">
			<rect id="Frame" rx="-0.500000" width="29.180000" height="22.440001" transform="translate(103.500000 44.500000)" fill="white" fill-opacity="0"/>
		</clipPath>
		<filter id="filter_95_6303_dd" x="138.000000" y="46.000000" width="76.706940" height="84.844513" filterUnits="userSpaceOnUse" color-interpolation-filters="sRGB">
			<feFlood flood-opacity="0" result="BackgroundImageFix"/>
			<feBlend mode="normal" in="SourceGraphic" in2="BackgroundImageFix" result="shape"/>
			<feGaussianBlur stdDeviation="1.33333" result="effect_layerBlur_1"/>
		</filter>
		<clipPath id="clip95_6303">
			<rect id="Frame" rx="-0.500000" width="67.860001" height="34.639999" transform="translate(142.500000 106.889343) rotate(-54.974663)" fill="white" fill-opacity="0"/>
		</clipPath>
		<filter id="filter_95_6322_dd" x="994.000000" y="3.000000" width="156.139893" height="174.119812" filterUnits="userSpaceOnUse" color-interpolation-filters="sRGB">
			<feFlood flood-opacity="0" result="BackgroundImageFix"/>
			<feBlend mode="normal" in="SourceGraphic" in2="BackgroundImageFix" result="shape"/>
			<feGaussianBlur stdDeviation="1.33333" result="effect_layerBlur_1"/>
		</filter>
		<clipPath id="clip95_6322">
			<rect id="Frame" rx="-0.500000" width="147.780701" height="76.004707" transform="translate(1083.405396 173.619812) rotate(-124.797287)" fill="white" fill-opacity="0"/>
		</clipPath>
		<clipPath id="clip95_6341">
			<rect id="Frame" rx="-0.500000" width="22.690001" height="17.670000" transform="translate(1026.362549 19.076721) rotate(101.044716)" fill="white" fill-opacity="0"/>
		</clipPath>
		<clipPath id="clip95_6361">
			<rect id="Frame" rx="-0.500000" width="60.000000" height="35.000000" transform="translate(989.952515 2.253845) rotate(129.201630)" fill="white" fill-opacity="0"/>
		</clipPath>
		<clipPath id="clip95_6248">
			<rect id="Frame 150" rx="11.500000" width="1109.000000" height="103.000000" transform="translate(0.500000 0.500000)" fill="white" fill-opacity="0"/>
		</clipPath>
	</defs>
	<rect id="Frame 150" rx="11.500000" width="1109.000000" height="103.000000" transform="translate(0.500000 0.500000)" fill="#FFE62E" fill-opacity="0.090000"/>
	<g clip-path="url(#clip95_6248)">
		<rect id="Frame" rx="-0.500000" width="52.000000" height="43.000000" transform="translate(37.500000 67.500000)" fill="#FFFFFF" fill-opacity="0"/>
		<g clip-path="url(#clip95_6250)">
			<path id="Vector" d="M43.16 72.83C45.17 69.96 47.71 67.59 50.7 67.1C53.56 66.61 56.78 67.97 59.3 69.06C64.51 71.38 67.44 72.79 71.71 76.34C75.08 79.16 78.75 81.86 81.33 85.48C83.58 88.57 84.4 92.49 87.28 95.09C90.88 98.32 91.01 99.03 86.99 101.69C74.36 110.12 65.57 112.64 50.38 109.99C43.41 108.76 38.58 107.44 37.4 100.13C36.47 94.36 37.1 87.16 38.86 81.63C39.75 79.01 41.17 75.66 43.16 72.83Z" fill="#FFC40C" fill-opacity="1.000000" fill-rule="nonzero"/>
			<path id="Vector" d="M51.7 82.73C49.9 85.97 48.58 89.68 48.58 92.21C48.54 97.83 57.63 99.28 61.78 99.11C67.48 98.88 73.51 98.32 79.17 97.58C77.14 99.03 74.91 100.2 72.56 101.11C67.5 103.12 62.2 104.65 56.91 105.37C51.17 106.16 43.96 107.12 40.98 100.54C38.86 95.81 39.33 91.06 39.66 86.08C40.02 81.16 44.01 75.96 47.86 73.11C48.82 72.38 50.02 72 51.38 71.79C58.37 70.76 62.61 74.7 67.18 79.35C68.73 80.94 70 82.86 71.71 84.27C73.56 85.8 76.44 87.55 78.7 89.48C75 88.48 71.12 85.61 67.96 83.54C65.36 81.84 62.71 80.03 59.75 79.03C55.59 77.6 53.79 79.07 51.7 82.73Z" fill="#FFFA50" fill-opacity="1.000000" fill-rule="nonzero"/>
			<path id="Vector" d="M78.41 89.29C80.78 90.63 84.02 93.06 83 95.49C82.05 97.73 77.52 98.9 75.46 99.28C72.29 99.88 69.09 100.07 65.91 100.45C63.33 100.77 61.23 101.52 58.6 101.03C53.64 100.11 49.51 99.2 48.86 93.74C48.01 86.82 53.94 74.02 62.84 77.6C66.02 78.88 67.12 81.48 69.34 83.65C71.5 85.78 74.26 87.25 76.97 88.51C77.35 88.72 77.86 88.97 78.41 89.29Z" fill="#FFE62E" fill-opacity="1.000000" fill-rule="nonzero"/>
			<path id="Vector" d="M50.7 67.1C53.56 66.61 56.78 67.97 59.3 69.06C64.51 71.38 67.44 72.79 71.71 76.34C75.08 79.16 78.75 81.86 81.33 85.48C82.41 86.97 83.17 88.68 84 90.34C83.39 89.48 82.77 88.65 82.05 87.97C79.47 85.4 76.84 82.65 73.77 80.67C73.73 80.65 73.68 80.63 73.66 80.6C68.47 75.94 61.86 72 56.78 72.51C48.22 73.38 41.82 82.01 41.21 90.38C40.3 102.39 49.58 107.01 60.42 106.31C69.83 105.71 82.03 104.27 89.55 97.94C89.66 97.9 89.72 97.88 89.8 97.83C90.42 99.09 89.55 99.98 86.99 101.69C74.36 110.12 65.57 112.64 50.38 109.99C43.41 108.76 38.58 107.44 37.4 100.13C36.47 94.36 37.1 87.16 38.86 81.63C39.71 79.01 41.15 75.66 43.12 72.83C45.19 69.96 47.71 67.59 50.7 67.1Z" fill="#EF9818" fill-opacity="1.000000" fill-rule="nonzero"/>
			<path id="Vector" d="M45.21 83.78C46.38 80.99 48.26 78.58 50.72 76.45C53.18 74.28 55.49 74.53 52.95 77.62C48.84 82.67 46.76 85.48 46.97 92.13C46.99 93.85 48.48 98.43 47.33 99.32C43.9 97.92 43.65 92.59 43.88 89.48C44.03 87.42 44.47 85.52 45.21 83.78Z" fill="#FFFFFF" fill-opacity="1.000000" fill-rule="nonzero"/>
			<path id="Vector" d="M79.62 93.4C79.57 93.02 79.49 92.64 79.36 92.36C78.94 91.49 77.9 90.74 77.12 90.21C76.4 89.72 75.46 89.4 75.06 88.59C75.95 88.12 77.98 89.51 78.7 89.97C79.72 90.63 80.76 91.38 81.52 92.36C82.09 93.08 82.48 93.94 82.28 94.87C82.09 95.75 81.54 96.53 80.59 96C79.78 95.58 79.76 94.4 79.62 93.4Z" fill="#FFFFFF" fill-opacity="1.000000" fill-rule="nonzero"/>
		</g>
		<g filter="url(#filter_95_6258_dd)">
			<rect id="Frame" rx="-0.500000" width="30.687382" height="25.306505" transform="translate(977.274536 89.061401) rotate(-159.990005)" fill="#FFFFFF" fill-opacity="0"/>
			<g clip-path="url(#clip95_6258)">
				<path id="Vector" d="M974.5 84.02C972.78 85.22 970.87 86.03 969.09 85.69C967.39 85.38 965.86 83.96 964.66 82.83C962.21 80.46 960.85 79.07 959.18 76.2C957.86 73.93 956.36 71.66 955.64 69.1C955.02 66.91 955.35 64.54 954.27 62.49C952.91 59.93 952.98 59.51 955.78 58.84C964.6 56.68 970.05 57.07 978.05 61.66C981.71 63.78 984.15 65.51 983.32 69.86C982.67 73.29 980.84 77.2 978.72 79.96C977.68 81.25 976.2 82.83 974.5 84.02Z" fill="#FFC40C" fill-opacity="1.000000" fill-rule="nonzero"/>
				<path id="Vector" d="M971.73 76.71C973.4 75.26 974.9 73.44 975.42 72.02C976.59 68.87 971.78 66.2 969.42 65.44C966.17 64.41 962.66 63.49 959.33 62.75C960.77 62.35 962.26 62.15 963.77 62.11C967.02 62.02 970.31 62.25 973.44 62.92C976.82 63.65 981.06 64.59 981.4 68.9C981.62 71.99 980.38 74.56 979.17 77.29C977.97 79.98 974.67 82.08 971.92 82.9C971.23 83.11 970.48 83.08 969.67 82.92C965.53 82.07 963.96 78.99 962.34 75.44C961.8 74.23 961.48 72.89 960.8 71.75C960.08 70.51 958.82 68.94 957.94 67.39C959.82 68.71 961.41 71.12 962.76 72.92C963.87 74.41 964.99 75.97 966.45 77.14C968.49 78.79 969.8 78.34 971.73 76.71Z" fill="#FFFA50" fill-opacity="1.000000" fill-rule="nonzero"/>
				<path id="Vector" d="M958.07 67.56C957.01 66.32 955.68 64.29 956.75 63.14C957.75 62.07 960.53 62.34 961.76 62.55C963.67 62.86 965.51 63.41 967.37 63.84C968.89 64.19 970.22 64.2 971.59 65.02C974.19 66.55 976.32 67.91 975.58 71.1C974.64 75.16 968.69 81.14 964.42 77.31C962.9 75.94 962.81 74.26 962.01 72.58C961.23 70.94 959.98 69.56 958.71 68.29C958.54 68.1 958.31 67.85 958.07 67.56Z" fill="#FFE62E" fill-opacity="1.000000" fill-rule="nonzero"/>
				<path id="Vector" d="M969.09 85.69C967.39 85.38 965.86 83.96 964.66 82.83C962.21 80.46 960.85 79.07 959.18 76.2C957.86 73.93 956.36 71.66 955.64 69.1C955.34 68.04 955.26 66.93 955.14 65.83C955.31 66.43 955.48 67.02 955.75 67.55C956.67 69.53 957.59 71.61 958.91 73.35C958.93 73.37 958.95 73.39 958.96 73.41C960.92 77.09 963.82 80.66 966.78 81.41C971.77 82.67 977.13 79.13 979.19 74.56C982.16 68 977.89 63.5 971.65 61.68C966.25 60.09 959.1 58.41 953.58 60.42C953.51 60.42 953.47 60.42 953.41 60.43C953.32 59.6 953.99 59.27 955.78 58.84C964.6 56.68 970.05 57.07 978.05 61.66C981.71 63.78 984.15 65.51 983.32 69.86C982.67 73.29 980.84 77.2 978.72 79.96C977.7 81.25 976.21 82.84 974.53 84.03C972.77 85.22 970.87 86.03 969.09 85.69Z" fill="#EF9818" fill-opacity="1.000000" fill-rule="nonzero"/>
				<path id="Vector" d="M975.59 77.45C974.36 78.78 972.81 79.74 970.99 80.44C969.17 81.15 967.92 80.54 969.98 79.32C973.32 77.33 975.07 76.17 976.31 72.4C976.65 71.42 976.75 68.55 977.58 68.28C979.22 69.77 978.27 72.81 977.5 74.51C977 75.64 976.36 76.62 975.59 77.45Z" fill="#FFFFFF" fill-opacity="1.000000" fill-rule="nonzero"/>
				<path id="Vector" d="M958.23 65C958.17 65.23 958.14 65.46 958.16 65.64C958.22 66.22 958.65 66.85 958.98 67.31C959.28 67.73 959.74 68.1 959.8 68.64C959.21 68.72 958.35 67.52 958.04 67.11C957.6 66.53 957.17 65.9 956.94 65.2C956.77 64.67 956.73 64.12 957.03 63.63C957.32 63.18 957.79 62.85 958.21 63.34C958.58 63.75 958.35 64.41 958.23 65Z" fill="#FFFFFF" fill-opacity="1.000000" fill-rule="nonzero"/>
			</g>
		</g>
		<rect id="Frame" rx="-0.500000" width="29.180000" height="22.440001" transform="translate(103.500000 44.500000)" fill="#FFFFFF" fill-opacity="0"/>
		<g clip-path="url(#clip95_6266)">
			<path id="Vector" d="M110.42 47.82C113.34 45.42 117.27 44.71 121.01 44.19C122.29 44.01 123.61 43.85 124.86 44.19C126.85 44.72 128.53 46.48 130.6 46.32C131.17 46.28 131.77 46.08 132.3 46.29C132.99 46.56 133.28 47.43 133.14 48.16C133 48.89 132.53 49.51 132.09 50.1C126.74 57.08 120.82 64.46 112.37 66.89C110.18 67.51 107.59 67.76 105.47 66.76C102.75 65.47 102.73 63.38 103.31 60.73C104.35 55.87 106.5 51.05 110.42 47.82Z" fill="#D5D458" fill-opacity="1.000000" fill-rule="nonzero"/>
			<g opacity="0.620000">
				<path id="Vector" d="M105.82 66.91C108.59 66.53 111.12 65.22 113.49 63.81C115.44 62.65 117.53 61.45 119.31 60.05C120.51 59.11 121.21 57.69 121.88 56.32C122.34 55.38 122.8 54.44 123.26 53.49C123.52 52.96 123.78 52.42 123.85 51.83C122.65 52.27 121.45 52.71 120.26 53.15C121.22 52.8 122.36 51.35 123.14 50.67C123.54 50.33 124.98 49.48 124.48 48.74C124.28 48.44 123.89 48.34 123.53 48.29C122.4 48.12 121.22 48.24 120.14 48.63C120.89 47.76 122.07 47.4 123.2 47.2C123.5 47.15 123.83 47.09 124.04 46.86C123.71 46.56 123.22 46.51 122.77 46.49C120.34 46.38 117.89 46.64 115.54 47.25C116.34 46.85 117.14 46.46 117.99 46.19C118.54 46.02 119.11 45.9 119.67 45.78C120.88 45.53 122.09 45.28 123.31 45.03C122.36 44.47 120.76 44.49 119.71 44.68C118.9 44.83 118 44.66 117.21 44.83C118.46 44.56 119.74 44.36 121 44.19C122.28 44.01 123.6 43.85 124.85 44.19C126.84 44.72 128.53 46.48 130.59 46.32C131.16 46.28 131.75 46.08 132.28 46.29C132.98 46.56 133.27 47.43 133.13 48.16C133 48.89 132.53 49.51 132.09 50.1C126.74 57.08 120.82 64.46 112.37 66.89C110.3 67.48 107.87 67.73 105.82 66.91Z" fill="#BFB939" fill-opacity="1.000000" fill-rule="nonzero"/>
			</g>
			<g opacity="0.620000">
				<path id="Vector" d="M129.05 50.36C128.13 48.82 128.64 47.53 128.99 46.08C129.5 46.26 130.03 46.36 130.6 46.32C131.17 46.28 131.77 46.08 132.3 46.29C132.99 46.56 133.28 47.43 133.14 48.16C133 48.89 132.53 49.51 132.09 50.1C131.59 50.76 131.07 51.42 130.56 52.08C130 51.55 129.45 51.04 129.05 50.36Z" fill="#FFEC9C" fill-opacity="1.000000" fill-rule="nonzero"/>
			</g>
			<g opacity="0.680000">
				<path id="Vector" d="M128.98 50.61C129 50.5 129 50.39 129 50.27C130.06 50.72 131.19 49.89 131.44 48.83C131.61 48.12 131.85 47.39 131.47 46.76C131.49 46.62 131.17 46.39 131.14 46.25C131.53 46.19 131.94 46.15 132.31 46.29C133 46.56 133.28 47.43 133.14 48.16C133 48.89 132.53 49.51 132.09 50.1C131.52 50.84 130.95 51.59 130.36 52.33C129.55 51.91 128.84 51.32 128.98 50.61Z" fill="#E8B769" fill-opacity="1.000000" fill-rule="nonzero"/>
			</g>
			<g opacity="0.440000">
				<path id="Vector" d="M111.76 49.76C113.47 48.58 115.37 47.65 117.39 47.18C119.95 46.58 122.72 46.74 125.09 47.88C126.39 48.5 127.63 49.56 127.83 50.98C128.17 53.54 126.61 55.24 125.17 57.05C123.43 59.25 121.17 61.01 118.71 62.36C115.58 64.07 112.13 65.12 108.65 65.93C107.34 66.23 105.72 66.4 104.88 65.33C104.3 64.61 104.35 63.57 104.49 62.65C105.23 57.68 107.58 52.65 111.76 49.76Z" fill="#E5DF6E" fill-opacity="1.000000" fill-rule="nonzero"/>
			</g>
			<g opacity="0.650000">
				<path id="Vector" d="M130.37 52.07C130.39 52.03 130.42 52 130.45 51.97C131.06 51.11 131.96 49.53 132.17 48.49C132.39 47.36 132.23 46.53 131.34 46.23C131.67 46.19 132 46.17 132.3 46.29C132.99 46.56 133.28 47.43 133.14 48.16C133 48.89 132.53 49.51 132.09 50.1C131.55 50.8 131 51.51 130.45 52.21C130.42 52.16 130.39 52.11 130.37 52.07Z" fill="#A57329" fill-opacity="1.000000" fill-rule="nonzero"/>
			</g>
			<path id="Vector" d="M108.87 63.87C108.71 63.94 108.55 64.01 108.39 64.08C107.62 64.44 106.44 65.05 105.58 64.73C104.57 64.35 104.96 62.09 105.14 61.18C105.67 58.41 107.45 56.3 109.24 54.53C110.17 53.6 111.33 52.9 112.61 52.82C113.14 52.79 113.68 52.86 114.21 52.8C115.32 52.68 116.3 51.9 117.42 51.87C118.1 51.85 119.06 51.95 119.72 52.14C120.27 52.3 120.81 52.73 120.98 53.34C121.16 53.97 120.92 54.62 120.66 55.17C118.92 58.85 115.83 61.59 112.24 62.64C111.04 62.99 109.98 63.37 108.87 63.87Z" fill="#E5DF6E" fill-opacity="1.000000" fill-rule="nonzero"/>
			<g opacity="0.770000">
				<path id="Vector" d="M105.46 66.76C104.7 66.4 104.15 65.97 103.77 65.49C104.24 66.08 106.28 65.69 106.9 65.64C108.34 65.49 109.75 65.16 111.12 64.71C116.07 63.09 122.01 60.38 124.18 55.3C123.75 55.53 123.32 55.76 122.89 55.99C123.78 54.47 124.82 53.03 126.01 51.73C126.18 51.55 126.33 51.22 126.12 51.09C126.06 51.05 125.98 51.05 125.91 51.02C125.66 50.91 125.71 50.55 125.67 50.28C125.44 48.78 118.97 50.31 118.09 50.96C119.42 49.97 120.97 49.29 122.6 48.98C123.5 48.81 124.41 48.75 125.3 48.55C125.43 48.52 125.57 48.48 125.66 48.39C125.83 48.2 125.73 47.87 125.53 47.72C125.37 47.61 123.92 47.19 123.8 47.27C124.32 46.94 124.88 46.68 125.46 46.5C125.04 46.45 124.65 46.28 124.33 46C125.07 45.96 125.81 45.82 126.52 45.61C125.57 45.03 124.5 44.65 123.39 44.49C122.91 44.42 122.41 44.51 121.95 44.45C121.65 44.41 121.32 44.17 121.01 44.21C122.29 44.03 123.61 43.87 124.86 44.21C126.44 44.63 127.83 45.82 129.37 46.22C128.88 46.91 128.62 47.79 128.6 48.62C128.57 50.01 129.53 51.57 131.05 51.45C125.97 58.01 120.27 64.62 112.36 66.9C110.18 67.51 107.59 67.76 105.46 66.76Z" fill="#B9BC37" fill-opacity="1.000000" fill-rule="nonzero"/>
			</g>
			<g opacity="0.680000">
				<path id="Vector" d="M105.46 66.76C105.15 66.61 104.89 66.44 104.65 66.29C110.46 68.43 116.69 65.01 121.15 61.27C122.48 60.16 123.77 58.98 124.95 57.71C126.51 56.03 127.55 54.14 128.77 52.23C127.29 52.15 125.96 53.09 124.78 53.98C125.43 53.01 126.56 52.49 127.38 51.67C127.58 51.47 127.78 51.17 127.66 50.91C127.47 50.5 126.72 50.61 126.6 50.18C126.86 49.96 127.12 49.74 127.38 49.52C127.25 49.37 127.07 49.27 126.88 49.25C127.07 48.7 127.93 48.52 127.95 47.94C127.96 47.56 127.59 47.29 127.23 47.17C126.87 47.05 126.47 46.98 126.22 46.71C126.85 46.6 127.49 46.59 128.12 46.7C127.8 46.65 127.27 45.27 126.84 45.04C127.69 45.49 128.52 45.98 129.39 46.2C128.89 46.89 128.64 47.77 128.62 48.6C128.59 49.99 129.56 51.55 131.07 51.43C125.99 57.99 120.29 64.61 112.38 66.87C110.18 67.51 107.59 67.76 105.46 66.76Z" fill="#A29720" fill-opacity="1.000000" fill-rule="nonzero"/>
			</g>
			<g opacity="0.750000">
				<path id="Vector" d="M105.46 66.76C105.15 66.61 104.89 66.44 104.65 66.29C110.46 68.43 116.69 65.01 121.15 61.27C123.63 59.19 125.77 57.38 127.41 54.55C127.95 53.63 128.48 52.71 129.02 51.79C129.06 51.72 129.11 51.64 129.12 51.55C129.14 51.34 128.94 51.15 128.73 51.11C128.52 51.07 128.3 51.14 128.1 51.21C128.32 51.06 128.55 50.9 128.67 50.67C128.81 50.44 128.81 50.11 128.6 49.94C128.44 49.81 128.22 49.81 128.02 49.81C127.33 49.82 126.64 49.82 125.95 49.83C126.75 49.5 127.55 49.17 128.35 48.84C128.11 48.61 128.14 48.22 128.14 47.89C128.14 47.55 128 47.13 127.67 47.12C127.97 47.01 128.25 46.9 128.56 46.79C128.42 46.46 128.27 46.16 128.24 45.81C128.34 45.85 129.31 46.29 129.36 46.21C128.87 46.9 128.61 47.78 128.59 48.61C128.56 50 129.53 51.56 131.03 51.44C125.96 58 120.26 64.62 112.35 66.89C110.18 67.51 107.59 67.76 105.46 66.76Z" fill="#8A720B" fill-opacity="1.000000" fill-rule="nonzero"/>
			</g>
			<g opacity="0.420000">
				<path id="Vector" d="M130.95 47.71C131.09 47.71 131.23 47.71 131.35 47.77C131.47 47.82 131.58 47.95 131.57 48.08C131.57 48.16 131.53 48.23 131.49 48.29C131.16 48.84 130.75 49.35 130.3 49.79C130.06 50.02 129.73 50.24 129.42 50.11C129.19 50.01 129.09 49.72 129.05 49.46C129 49.2 129 48.92 129 48.65C129 48.11 129 47.31 129.5 46.94C130.17 46.45 130.98 46.9 130.95 47.71Z" fill="#FFF69E" fill-opacity="1.000000" fill-rule="nonzero"/>
			</g>
			<path id="Vector" d="M130.35 47.26C130.46 47.24 130.62 47.25 130.64 47.36C130.66 47.44 130.58 47.52 130.59 47.6C130.6 47.72 130.78 47.78 130.78 47.9C130.8 47.96 130.75 48.02 130.71 48.07C130.42 48.42 130.11 48.75 129.78 49.07C129.62 49.23 129.38 49.38 129.2 49.25C129.12 49.19 129.08 49.08 129.06 48.97C128.89 47.98 129.41 47.42 130.35 47.26Z" fill="#FBEF95" fill-opacity="1.000000" fill-rule="nonzero"/>
			<g opacity="0.340000">
				<path id="Vector" d="M107.28 54.73C108.28 53.31 109.55 52.05 111.13 51.32C109.28 53.05 107.69 55.05 106.38 57.21C106.21 57.5 106.04 57.78 105.88 58.07C105.74 58.33 105.52 58.54 105.39 58.79C104.97 59.62 104.64 60.49 104.4 61.39C104.35 61.58 104.3 61.77 104.19 61.92C104.28 61.79 104.22 61.24 104.25 61.06C104.3 60.73 104.38 60.4 104.48 60.08C104.68 59.49 105.05 59 105.28 58.44C105.81 57.15 106.47 55.89 107.28 54.73Z" fill="#BFB939" fill-opacity="1.000000" fill-rule="nonzero"/>
			</g>
			<g opacity="0.340000">
				<path id="Vector" d="M111.25 48.35C112.56 47.22 114.11 46.31 115.81 45.98C113.6 47.21 111.57 48.75 109.77 50.53C109.53 50.77 109.3 51 109.07 51.25C108.87 51.46 108.6 51.61 108.42 51.82C107.81 52.52 107.28 53.29 106.82 54.1C106.73 54.27 106.63 54.44 106.49 54.56C106.61 54.46 106.69 53.91 106.75 53.74C106.88 53.43 107.03 53.13 107.21 52.85C107.55 52.33 108.03 51.95 108.39 51.45C109.24 50.33 110.18 49.27 111.25 48.35Z" fill="#BFB939" fill-opacity="1.000000" fill-rule="nonzero"/>
			</g>
			<g opacity="0.340000">
				<path id="Vector" d="M106.17 59.34C106.97 58.32 107.98 57.42 109.19 56.92C107.74 58.15 106.46 59.58 105.4 61.15C105.27 61.35 105.13 61.56 105 61.77C104.88 61.96 104.71 62.11 104.61 62.29C104.27 62.89 103.99 63.53 103.78 64.18C103.74 64.32 103.69 64.44 103.6 64.57C103.67 64.48 103.64 64.07 103.67 63.94C103.72 63.7 103.79 63.46 103.88 63.23C104.05 62.8 104.35 62.45 104.54 62.04C104.98 61.08 105.52 60.17 106.17 59.34Z" fill="#BFB939" fill-opacity="1.000000" fill-rule="nonzero"/>
			</g>
			<g opacity="0.340000">
				<path id="Vector" d="M119.91 58.35C119 59.4 117.88 60.31 116.56 60.77C118.18 59.53 119.62 58.06 120.84 56.44C121 56.23 121.16 56.01 121.31 55.79C121.44 55.59 121.64 55.44 121.76 55.26C122.16 54.63 122.49 53.96 122.76 53.27C122.81 53.13 122.87 52.98 122.97 52.86C122.88 52.96 122.89 53.4 122.86 53.54C122.8 53.8 122.71 54.05 122.6 54.3C122.4 54.76 122.06 55.11 121.83 55.55C121.28 56.54 120.65 57.49 119.91 58.35Z" fill="#BFB939" fill-opacity="1.000000" fill-rule="nonzero"/>
			</g>
		</g>
		<rect id="Frame" rx="-0.500000" width="55.724548" height="28.359032" transform="translate(33.243042 45.429932) rotate(-144.326126)" fill="#FFFFFF" fill-opacity="0"/>
		<path id="Vector" d="M64.72 40.85C64.68 42.39 64.69 43.9 64.58 45.44C64.5 46.64 65.07 47.71 64.92 48.89C64.73 50.42 63.9 50.28 62.38 50.54C60.56 50.86 58.74 51.08 56.93 51.39C54.5 51.82 51.87 51.69 49.49 51C44.81 49.66 40.75 46.93 37.39 43.41C31.13 36.84 27.4 27.01 27.05 17.98C26.97 15.97 26.75 13.08 25.51 11.4C24.64 10.2 22.56 8.87 25.21 8.95C26.78 9 27.91 9.83 29.29 10.36C30.68 10.9 32.18 10.91 33.67 11.01C35.08 11.09 36.48 11.31 37.88 11.48C46.98 12.56 53.98 20.07 58.98 27.11C61.93 31.24 64.82 35.6 64.72 40.85Z" fill="#78AF02" fill-opacity="1.000000" fill-rule="nonzero"/>
		<g opacity="0.420000">
			<path id="Vector" d="M58.73 51.11C58.13 51.2 57.53 51.29 56.94 51.4C54.51 51.82 51.88 51.69 49.5 51.01C44.82 49.66 40.76 46.93 37.4 43.41C31.13 36.84 27.4 27.01 27.05 17.98C26.97 15.97 26.75 13.08 25.51 11.4C24.64 10.2 22.56 8.87 25.21 8.95C26.4 8.98 27.35 9.48 28.34 9.95C30.03 11.65 30.85 13.9 32.4 15.83C33.04 16.62 33.72 17.33 34.29 18.18C34.43 18.4 35.55 20.97 35.42 20.92C33.73 20.33 32.62 19.17 31.47 17.84C30.49 16.7 29.13 14.48 27.57 14.14C26.04 17.33 30.84 20.14 32.44 22.04C30.85 21.39 29.85 19.82 28.32 19.06C28.85 20 28.38 21.43 28.84 22.52C29.33 23.63 30.16 24.27 31.29 24.69C33.07 25.36 34.75 25.92 36.53 26.2C38.41 26.5 40.45 25.88 42.08 27.18C40.81 28.52 37.34 27.35 35.89 26.98C35.05 26.76 28.77 24.71 28.83 24.43C27.72 29.76 35.42 32.04 39.15 32.08C40.39 32.09 41.64 31.98 42.88 31.94C43.52 31.93 45.69 32.35 46.16 32.06C42.61 34.26 37.63 33.52 33.95 32.13C33.1 31.81 32.24 31.39 31.37 31.34C29.66 35.26 35.33 36.3 37.81 36.54C39.84 36.73 41.92 37.34 43.97 37.24C45.44 37.17 46.82 36.35 48.26 36.18C46.61 37.49 44.03 37.91 41.97 37.98C39.5 38.06 36.94 36.8 34.49 37.19C33.86 38.89 37.52 41.37 38.75 41.97C41.14 43.14 44.46 43.01 47.06 43.05C48.53 43.07 49.95 42.42 51.32 41.95C52.14 41.67 54.58 41.54 55.14 41.08C53.86 42.13 51.89 42.66 50.29 43C49.27 43.22 48.24 43.43 47.2 43.53C46.28 43.62 44.95 43.26 44.1 43.48C41.77 44.1 43.19 45.78 44.73 46.17C48.14 47 51.36 47.04 54.76 46.41C53.07 46.72 51.7 47.47 49.8 47.53C47.91 47.58 46.13 46.89 44.19 47.26C44.29 49.41 51.6 50.04 53.09 50.18C54.81 50.35 56.49 50.1 58.13 49.59C58.99 49.31 60.49 48.35 61.59 48.11C61.9 48.05 62.17 48.04 62.38 48.13C62.6 48.21 59.73 50.58 59.37 50.77C59.16 50.88 58.94 51 58.73 51.11Z" fill="#A3CE24" fill-opacity="1.000000" fill-rule="nonzero"/>
		</g>
		<g opacity="0.420000">
			<path id="Vector" d="M49.5 51.01C44.82 49.66 40.76 46.93 37.4 43.41C31.13 36.84 27.4 27.01 27.05 17.98C26.97 15.97 26.75 13.08 25.51 11.4C24.64 10.2 22.56 8.87 25.21 8.95C26.71 8.99 27.81 9.76 29.11 10.29C30.22 11.16 31.15 12.13 31.62 13.55C31.66 13.66 31.69 13.77 31.72 13.89C32.4 16.32 30.59 15.73 29.1 16.31C26.74 17.23 29.4 19.48 30.74 20.28C31.85 20.93 34.08 21.04 34.71 22.23C32.93 23.54 30.64 21.9 28.84 21.33C28.18 24.94 34 25.89 36.63 25.78C39.81 25.65 37.52 27.38 35.82 27.93C34.72 28.29 33.78 28.37 32.63 28.29C31.81 28.24 30.61 27.89 29.89 28.14C31.66 29.76 33.54 30.86 35.99 31.52C37.26 31.87 39.02 32.28 40.38 32.33C41.58 32.37 42.97 31.82 44.05 32.46C43.79 33.92 40.08 34.3 38.91 34.35C36.1 34.46 34.04 33.91 31.42 33.09C31.44 34.2 32.94 35.46 33.81 36.06C35.07 36.91 36.69 36.93 38.16 37.17C39.88 37.46 41.69 37.76 43.42 37.61C44.48 37.51 46.98 36.32 47.81 36.82C47.24 38.22 44.66 39.19 43.34 39.69C40.99 40.57 38.14 40.4 35.82 39.45C35.85 40.39 38.03 41.65 38.81 42.09C42.83 44.33 47.48 43.39 51.72 42.04C52.76 41.71 53.96 40.94 53.37 42.66C53.04 43.6 52.16 44.17 51.24 44.55C48.48 45.71 45.36 44.84 42.51 45.1C43.89 45.72 45.59 46.49 47.12 46.62C49.69 47.56 52.8 46.01 55.24 46.89C53.71 48.13 51.88 48.41 49.96 48.25C48.69 48.15 47.05 47.21 45.8 47.52C44.52 47.83 44.74 48.55 45.76 49.23C47.48 50.37 50.05 49.85 51.98 50.23C52.85 50.4 53.22 50.16 52.86 51.25C52.82 51.35 52.76 51.46 52.69 51.56C51.61 51.49 50.54 51.3 49.5 51.01Z" fill="#A3CE24" fill-opacity="1.000000" fill-rule="nonzero"/>
		</g>
		<g opacity="0.420000">
			<path id="Vector" d="M46.94 46.55C47 46.58 47.06 46.59 47.13 46.62C47.17 46.62 47.22 46.63 47.26 46.63C47.15 46.58 47.05 46.56 46.94 46.55Z" fill="#A3CE24" fill-opacity="1.000000" fill-rule="nonzero"/>
		</g>
		<path id="Vector" d="M56.94 51.4C54.51 51.82 51.88 51.69 49.5 51.01C49.09 50.89 48.68 50.74 48.28 50.61C48.78 50.72 49.26 50.82 49.69 50.88C51.91 51.17 55.26 51.16 57.17 49.81C57.61 49.5 57.96 49.11 58.2 48.64C59.02 47.04 56.79 46.51 55.68 46.42C53.87 46.28 52 46.9 50.22 47.13C48.07 47.41 44.42 47 42.11 45.55C45.74 46.9 54.57 47.7 55.71 43.15C55.77 42.93 55.7 42.66 55.47 42.58C53.13 41.89 50.99 42.87 48.64 43.13C46.4 43.38 40.04 42.7 39.07 42.24C42.52 42.66 46.75 42.31 49.56 40.77C51.24 39.84 50.06 37.78 48.67 37.27C46.76 36.55 44.62 37.57 42.6 37.45C40.31 37.33 38.06 37.1 35.82 36.61C35.23 36.49 34.66 36.25 34.08 36.03C32.99 35.63 31.91 35.07 31.41 33.97C32.99 35.45 35.22 35.69 37.24 35.9C39.45 36.11 41.65 36.34 43.65 35.13C44.35 34.71 46.46 33.49 45.74 32.39C45.12 31.42 42.24 31.78 41.27 31.84C39.13 31.99 37.26 31.66 35.18 31.29C33.32 30.97 31.94 30.34 30.57 28.99C32.98 30.36 35.73 30.71 38.45 30.5C39.75 30.4 42.65 29.61 41.47 27.68C40.49 26.06 37.78 26.55 36.23 26.54C33.91 26.55 31.43 25.2 29.47 24.1C30.76 24.31 31.97 24.93 33.29 24.96C33.99 24.97 35.42 25.02 35.98 24.66C37.22 23.86 35.78 23.43 35.06 23.16C33 22.38 31.42 21.35 29.75 19.94C28.39 18.8 27.66 17.44 27.14 15.76C27.79 17.6 29.29 18.46 30.81 19.48C31.94 20.23 33.36 21.36 34.8 20.57C35.12 20.39 35.19 20.04 35.51 19.96C36.07 19.82 36.55 20.32 36.96 20.62C37.35 20.9 37.76 21.01 38.16 21.26C39.17 21.89 39.1 23.16 39.62 24.11C40.19 25.14 41.13 25.94 41.94 26.78C42.95 27.84 43.94 28.91 44.94 29.96C46.89 32.05 48.84 34.15 50.8 36.23C53.42 39.02 55.98 41.86 58.44 44.79C60.18 46.86 61.42 48.01 63.94 48.79C64.17 48.86 64.51 48.96 64.9 49.08C64.66 50.37 63.84 50.28 62.4 50.52C60.57 50.86 58.75 51.08 56.94 51.4Z" fill="#6D9E02" fill-opacity="1.000000" fill-rule="nonzero"/>
		<path id="Vector" d="M57.94 46.49C56.29 45.28 54.81 43.84 53.26 42.51C49.85 39.57 46.14 36.58 43.34 33.03C40.47 29.38 37.59 25.84 34.99 21.98C32.55 18.37 30.01 14.22 26.81 11.26C26.14 10.64 25.13 10.07 24.3 9.68C24.21 9.63 24.11 9.6 23.99 9.56C23.8 9.16 24.03 8.91 25.22 8.95C26.79 9 27.92 9.83 29.3 10.36C30.69 10.89 32.19 10.91 33.68 11C35.09 11.09 36.5 11.31 37.89 11.48C46.99 12.56 53.99 20.07 58.99 27.11C61.93 31.25 64.83 35.6 64.72 40.85C64.68 42.39 64.69 43.9 64.58 45.44C64.5 46.64 65.07 47.71 64.92 48.89C64.84 49.53 64.65 49.87 64.34 50.07C62.1 49.17 60.03 48.03 57.94 46.49Z" fill="#61A304" fill-opacity="1.000000" fill-rule="nonzero"/>
		<g opacity="0.600000">
			<path id="Vector" d="M26.8 11.27C26.13 10.64 25.12 10.07 24.29 9.68C24.2 9.63 24.1 9.6 23.98 9.56C23.79 9.16 24.02 8.91 25.21 8.95C25.32 8.95 25.43 8.96 25.53 8.98C25.49 9.05 25.46 9.13 25.47 9.22C25.49 9.69 26.33 10.16 26.67 10.41C27.23 10.82 27.6 11.32 28.03 11.86C29.56 13.72 30.86 15.73 32.4 17.61C33.2 18.59 35.03 22.38 36.37 22.52C37.58 22.64 37 21.23 36.73 20.3C36.42 19.24 35.84 18.65 35.36 17.71C34.86 16.68 34.57 15.56 33.92 14.61C33.14 13.48 32.28 12.63 31.38 11.64C32.98 12.23 34.18 14.6 35.06 16C36.29 17.97 37.21 19.95 37.78 22.18C38.25 23.99 38.58 25.51 39.88 26.92C40.1 27.15 40.44 27.77 40.79 27.57C41.28 27.29 40.99 26.21 41.05 25.76C41.2 24.84 41.43 24.01 41.46 23.05C41.53 21.37 41.33 19.66 41.29 17.98C41.24 16.53 40.83 14.87 40.11 13.6C41.8 16.57 42.65 19.46 42.36 22.91C42.27 24.02 42.37 25.18 42.22 26.28C42.06 27.4 41.92 28.55 42.44 29.62C42.92 30.61 43.82 31.5 44.56 32.36C45.56 33.54 46.05 33.05 46.4 31.72C47.02 29.45 46.77 27.13 47.2 24.88C47.59 22.82 46.9 20.45 46.68 18.39C46.52 16.71 46.03 15.26 45.36 13.92C45.41 13.95 45.46 13.97 45.51 14C45.57 14.03 45.63 14.07 45.69 14.11C47.91 16.75 48.07 20.45 48.51 23.86C48.51 24.22 48.51 24.6 48.5 24.97C48.44 27.22 48.33 29.51 48.44 31.77C48.52 33.35 48.31 35 49.77 36.01C50.32 36.38 51.15 36.79 51.71 36.3C51.96 36.06 52.15 35.56 52.27 35.25C53.33 32.31 53.07 28.98 53.23 25.91C53.33 23.99 53.36 22.03 53.23 20.1C53.25 20.11 53.26 20.13 53.28 20.15C53.28 20.16 53.29 20.16 53.29 20.17C54.48 22.11 54.42 24.45 54.5 26.65C54.54 27.78 54.67 29.01 54.55 30.14C54.45 31.19 54.4 32.22 54.31 33.26C54.18 34.8 53.98 36.23 54.01 37.78C54.04 39.8 54.61 43.03 57.08 43.41C58.7 43.66 59.55 40.78 59.96 39.67C60.91 37.13 60.77 33.95 60.68 31.27C60.66 30.66 60.62 30.06 60.58 29.46C60.75 29.73 60.93 30 61.1 30.26C61.51 30.9 61.48 32.15 61.64 32.9C61.86 33.95 61.49 35.11 61.44 36.19C61.32 38.32 61.17 41 60.31 42.97C59.94 43.83 58.93 46.81 60.95 46.4C63.02 45.97 64.22 43.07 64.67 41.04C64.64 42.52 64.64 43.98 64.54 45.47C64.46 46.67 65.03 47.74 64.88 48.92C64.81 49.55 64.61 49.89 64.3 50.09C62.33 49.3 60.5 48.3 58.67 47.04C56.95 45.71 55.27 44.32 53.62 42.89C53.49 42.77 53.35 42.65 53.21 42.54C53.02 42.37 52.83 42.21 52.65 42.05C52.03 41.51 51.41 40.97 50.8 40.42C48.56 38.43 46.2 36.42 44.21 34.14C43.89 33.79 43.59 33.43 43.3 33.05C40.42 29.41 37.55 25.86 34.94 22.01C33.54 19.92 32.12 17.61 30.49 15.53C29.38 13.97 28.15 12.51 26.8 11.27Z" fill="#468E02" fill-opacity="1.000000" fill-rule="nonzero"/>
		</g>
		<g opacity="0.310000">
			<path id="Vector" d="M61.42 44.37C60.66 43.54 61.78 39.99 61.95 39.02C62.64 35.22 62.51 32.04 59.71 29.08C58.85 28.18 58.11 27.61 57.51 28.98C56.77 30.71 57.18 34.73 57.3 36.58C57.36 37.47 57.98 42.51 55.88 41.42C54.76 40.84 54.96 37.8 54.88 36.77C54.7 34.38 54.65 32.08 55.01 29.67C55.24 28.2 56.16 25.69 55.67 24.26C55.08 22.49 51.06 20.09 50.98 23.3C50.93 25.6 50.98 27.86 50.81 30.16C50.75 30.94 50.7 35.78 49.52 34.82C48.71 34.16 48.94 31.26 48.84 30.28C48.59 27.79 48.37 25.07 48.5 22.58C48.59 21.02 48.93 18.46 47.09 17.68C45.69 17.08 45.38 18.41 45.16 19.45C44.62 22.06 45.73 25.94 44.17 28.26C42.92 30.12 42.74 27.6 42.59 26.4C42.37 24.68 42.42 22.95 42.39 21.22C42.36 19.81 42.5 15.89 40.21 16.07C39.92 17.39 41.16 21.48 39.28 22.09C38.17 22.45 38.13 19.84 37.92 19.21C37.3 17.3 35.55 13.32 33.34 12.92C32.09 14.97 36.22 17.25 35.16 19.39C33.53 18.66 32.55 17.1 31.5 15.74C30.53 14.5 29.16 13.26 27.77 12.22C27.45 11.89 27.13 11.57 26.79 11.26C26.12 10.63 25.11 10.06 24.28 9.67C24.19 9.63 24.09 9.59 23.97 9.56C23.78 9.16 24.01 8.91 25.2 8.94C26.77 8.99 27.9 9.83 29.28 10.36C30.67 10.89 32.17 10.9 33.66 11C35.08 11.08 36.48 11.31 37.87 11.48C46.97 12.55 53.97 20.06 58.98 27.1C61.45 30.58 63.88 34.21 64.53 38.4C64.4 38.93 64.02 39.37 63.18 39.57C63.64 40.5 62.64 45.7 61.42 44.37Z" fill="#A3CE24" fill-opacity="1.000000" fill-rule="nonzero"/>
		</g>
		<path id="Vector" d="M30.34 15.26C30.25 15.13 30.15 15 30.04 14.87C31.71 16.16 33.24 18.66 34.44 20.27C35.43 21.6 36.28 24.05 37.6 25.05C37.91 23.61 37.03 21.26 36.44 19.9C37.59 21.35 38.07 23.08 38.49 24.85C38.9 26.52 39.35 28.38 41.06 29.14C42.21 27.95 41.6 25.61 41.99 24.14C42.57 26.41 41.98 29.69 42.23 30.58C42.59 31.85 46.04 34.76 47.4 35.14C47.63 34.37 47.19 33.37 47.15 32.54C47.11 31.69 47.27 30.83 47.16 29.99C47.86 31.82 47.86 33.45 48.21 35.32C48.57 37.3 50.19 38.78 51.68 39.97C53.56 37.76 52.5 34.17 53.85 31.78C54.53 33.15 53.81 35.39 53.71 36.86C53.6 38.43 53.49 39.98 54.14 41.5C54.64 42.67 55.66 44.18 57.09 44.14C58.58 44.12 59.97 41.89 60.48 40.68C60.39 42.43 58.28 44.52 59.15 46.3C59.83 47.72 61.22 47.91 62.55 47.19C63.74 46.53 64.13 45.29 64.61 44.12C64.59 44.56 64.58 45.01 64.55 45.47C64.47 46.67 65.04 47.74 64.9 48.92C64.82 49.55 64.62 49.89 64.32 50.09C62.99 49.55 61.72 48.92 60.48 48.19C57.37 45.54 54.03 43.12 50.86 40.5C48.17 38.2 45.47 35.79 43.31 33.05C40.43 29.4 37.56 25.86 34.96 22C33.56 19.93 32.12 17.69 30.56 15.6C30.51 15.47 30.42 15.36 30.34 15.26Z" fill="#4A8209" fill-opacity="1.000000" fill-rule="nonzero"/>
		<g opacity="0.240000">
			<path id="Vector" d="M34.86 38.47C35.75 40.11 36.82 41.66 38.23 43.06C42.32 47.12 51.33 51.62 56.98 48.1C56.22 46.18 51.22 44.76 49.46 43.66C44.98 40.84 41.37 36.69 38.21 32.48C35.22 28.48 33.81 21.4 28.69 19.51C26.88 21.94 29.23 25.51 30.26 27.67C31.97 31.3 33.02 35.07 34.86 38.47Z" fill="#CCEA86" fill-opacity="1.000000" fill-rule="nonzero"/>
		</g>
		<g opacity="0.200000">
			<path id="Vector" d="M48.17 18.7C48.06 18.7 47.97 18.69 47.88 18.67C47.86 18.68 47.85 18.68 47.84 18.69C47.96 18.72 48.07 18.72 48.17 18.7Z" fill="#CCEA86" fill-opacity="1.000000" fill-rule="nonzero"/>
		</g>
		<g opacity="0.200000">
			<path id="Vector" d="M52.93 21.69C52.14 21.29 51.27 21.34 50.74 20.46C50.41 19.91 50.59 19.2 50.03 18.74C49.45 18.26 48.45 18.34 47.88 18.67C47.1 18.5 47.19 17.61 46.62 17.11C46.17 16.72 45.37 16.69 44.87 16.34C43.78 15.55 43.63 13.81 42.57 13.13C41.42 12.42 40.18 13.42 39.12 13.29C38.17 13.18 37.72 12.24 36.81 12.05C35.69 11.81 35.09 12.8 34.16 12.63C32.71 12.36 31.55 11.72 30.03 11.68C29.11 11.65 28.34 11.79 27.58 12.04C27.32 11.77 27.06 11.51 26.79 11.26C26.12 10.63 25.11 10.06 24.28 9.67C24.19 9.63 24.09 9.59 23.97 9.56C23.78 9.16 24.01 8.91 25.2 8.94C26.77 8.99 27.9 9.83 29.28 10.36C30.67 10.89 32.17 10.9 33.66 11C35.08 11.08 36.48 11.31 37.87 11.48C46.97 12.55 53.97 20.06 58.98 27.1C59.14 27.32 59.28 27.54 59.44 27.76C58.17 26.17 56.64 24.79 55.12 23.44C54.43 22.81 53.75 22.09 52.93 21.69Z" fill="#CCEA86" fill-opacity="1.000000" fill-rule="nonzero"/>
		</g>
		<g opacity="0.250000">
			<path id="Vector" d="M36.86 39.48C37.51 40.27 38.26 40.83 38.95 41.57C39.67 42.33 39.79 43.5 40.64 44.13C41.33 44.63 42.37 44.68 43.14 44.96C44.23 45.37 45.22 46 46.32 46.41C47.37 46.81 48.41 47.2 49.49 47.49C50.1 47.65 51.23 48.29 51.83 48.26C52.33 48.23 52.61 48.2 52.69 47.53C52.87 46.17 50.95 45.37 50.03 45.03C48.31 44.39 46.36 44.35 44.87 43.21C43.67 42.3 42.87 40.98 42.08 39.75C41 38.06 39.87 36.27 38.68 34.65C37.57 33.12 36.11 32.32 35.22 30.57C34.83 29.78 34.38 29.29 33.96 28.63C33.47 27.89 30.44 20.01 29.38 21.11C28.5 22.01 30.94 26.35 31.33 27.4C32.2 29.72 33.5 32.01 34.07 34.41C34.53 36.37 35.6 37.93 36.86 39.48Z" fill="#CCEA86" fill-opacity="1.000000" fill-rule="nonzero"/>
		</g>
		<g filter="url(#filter_95_6303_dd)">
			<rect id="Frame" rx="-0.500000" width="67.860001" height="34.639999" transform="translate(142.500000 106.889343) rotate(-54.974663)" fill="#FFFFFF" fill-opacity="0"/>
			<g clip-path="url(#clip95_6303)">
				<path id="Vector" d="M164.04 114.19C162.16 114.17 160.33 114.19 158.46 114.09C157 114.01 155.71 114.71 154.27 114.55C152.42 114.34 152.58 113.33 152.24 111.49C151.83 109.29 151.54 107.08 151.13 104.89C150.58 101.94 150.7 98.75 151.5 95.85C153.07 90.15 156.33 85.18 160.55 81.06C168.44 73.36 180.32 68.71 191.28 68.16C193.71 68.03 197.22 67.72 199.25 66.2C200.68 65.13 202.27 62.58 202.22 65.8C202.18 67.7 201.18 69.09 200.56 70.76C199.93 72.46 199.93 74.28 199.83 76.09C199.76 77.81 199.5 79.51 199.31 81.21C198.13 92.27 189.11 100.87 180.64 107.04C175.66 110.67 170.41 114.25 164.04 114.19Z" fill="#78AF02" fill-opacity="1.000000" fill-rule="nonzero"/>
				<g opacity="0.420000">
					<path id="Vector" d="M151.49 107.07C151.38 106.34 151.26 105.61 151.12 104.89C150.58 101.95 150.7 98.76 151.5 95.86C153.06 90.16 156.32 85.19 160.55 81.07C168.44 73.36 180.32 68.71 191.28 68.16C193.71 68.03 197.22 67.72 199.25 66.2C200.68 65.13 202.27 62.58 202.22 65.8C202.19 67.24 201.6 68.4 201.05 69.61C199 71.69 196.29 72.71 193.96 74.62C193.01 75.4 192.16 76.24 191.13 76.94C190.87 77.12 187.77 78.52 187.82 78.36C188.52 76.3 189.91 74.93 191.51 73.52C192.88 72.31 195.56 70.63 195.94 68.74C192.05 66.92 188.71 72.79 186.42 74.76C187.19 72.81 189.08 71.57 189.98 69.71C188.85 70.37 187.11 69.81 185.79 70.39C184.46 71 183.68 72.01 183.19 73.39C182.4 75.56 181.75 77.61 181.43 79.77C181.1 82.06 181.87 84.53 180.32 86.52C178.68 85.01 180.04 80.77 180.48 79C180.73 77.99 183.13 70.34 183.48 70.41C176.98 69.13 174.33 78.51 174.33 83.04C174.34 84.54 174.49 86.05 174.55 87.56C174.58 88.33 174.09 90.98 174.45 91.54C171.73 87.27 172.56 81.22 174.2 76.73C174.58 75.68 175.07 74.64 175.12 73.59C170.34 71.55 169.15 78.46 168.9 81.47C168.69 83.94 167.98 86.47 168.13 88.96C168.24 90.74 169.25 92.4 169.48 94.16C167.87 92.17 167.32 89.04 167.2 86.54C167.07 83.54 168.57 80.42 168.07 77.45C165.99 76.71 163.03 81.18 162.32 82.69C160.93 85.6 161.13 89.64 161.12 92.79C161.12 94.57 161.93 96.29 162.52 97.94C162.86 98.93 163.05 101.9 163.62 102.57C162.33 101.04 161.66 98.64 161.22 96.71C160.94 95.47 160.68 94.22 160.53 92.96C160.42 91.84 160.84 90.23 160.56 89.2C159.78 86.38 157.75 88.13 157.31 90.01C156.34 94.15 156.34 98.06 157.14 102.18C156.75 100.13 155.82 98.48 155.72 96.17C155.63 93.88 156.44 91.71 155.97 89.36C153.37 89.52 152.7 98.39 152.55 100.2C152.37 102.3 152.69 104.33 153.34 106.31C153.69 107.35 154.88 109.16 155.17 110.49C155.25 110.87 155.27 111.19 155.17 111.46C155.07 111.72 152.15 108.27 151.92 107.83C151.78 107.58 151.64 107.32 151.49 107.07Z" fill="#A3CE24" fill-opacity="1.000000" fill-rule="nonzero"/>
				</g>
				<g opacity="0.420000">
					<path id="Vector" d="M151.5 95.86C153.06 90.16 156.32 85.19 160.55 81.07C168.44 73.36 180.32 68.71 191.28 68.16C193.71 68.03 197.22 67.72 199.25 66.2C200.68 65.13 202.27 62.58 202.22 65.8C202.18 67.62 201.27 68.97 200.65 70.55C199.6 71.91 198.43 73.05 196.72 73.64C196.59 73.69 196.45 73.73 196.31 73.77C193.37 74.63 194.06 72.42 193.33 70.62C192.19 67.77 189.49 71.03 188.54 72.66C187.76 74.02 187.65 76.73 186.22 77.51C184.62 75.37 186.56 72.57 187.24 70.37C182.84 69.62 181.77 76.69 181.94 79.89C182.14 83.74 180.01 81 179.32 78.93C178.87 77.61 178.76 76.47 178.84 75.07C178.89 74.07 179.3 72.61 178.99 71.74C177.04 73.91 175.73 76.21 174.96 79.19C174.55 80.74 174.09 82.88 174.04 84.53C174.01 85.99 174.7 87.67 173.93 88.99C172.16 88.69 171.64 84.19 171.57 82.77C171.4 79.37 172.04 76.86 172.99 73.67C171.65 73.71 170.14 75.54 169.43 76.6C168.4 78.15 168.41 80.12 168.14 81.91C167.81 84 167.46 86.2 167.68 88.3C167.81 89.57 169.29 92.6 168.69 93.61C166.99 92.94 165.77 89.82 165.15 88.23C164.05 85.39 164.22 81.92 165.33 79.1C164.19 79.14 162.69 81.8 162.17 82.75C159.5 87.68 160.71 93.31 162.41 98.43C162.82 99.68 163.78 101.14 161.68 100.44C160.54 100.05 159.83 98.99 159.36 97.88C157.91 94.55 158.92 90.75 158.58 87.29C157.83 88.98 156.93 91.05 156.78 92.91C155.68 96.04 157.61 99.79 156.57 102.77C155.05 100.93 154.68 98.72 154.85 96.38C154.95 94.84 156.07 92.83 155.68 91.32C155.28 89.77 154.41 90.05 153.61 91.3C152.25 93.4 152.91 96.51 152.47 98.86C152.28 99.92 152.58 100.36 151.25 99.94C151.12 99.9 150.99 99.83 150.86 99.74C150.94 98.43 151.15 97.12 151.5 95.86Z" fill="#A3CE24" fill-opacity="1.000000" fill-rule="nonzero"/>
				</g>
				<g opacity="0.420000">
					<path id="Vector" d="M156.87 92.69C156.84 92.77 156.82 92.84 156.79 92.92C156.8 92.97 156.78 93.03 156.78 93.08C156.83 92.95 156.86 92.82 156.87 92.69Z" fill="#A3CE24" fill-opacity="1.000000" fill-rule="nonzero"/>
				</g>
				<path id="Vector" d="M151.12 104.89C150.58 101.95 150.7 98.76 151.5 95.86C151.63 95.36 151.81 94.86 151.97 94.37C151.84 94.98 151.72 95.56 151.66 96.08C151.34 98.79 151.39 102.86 153.05 105.16C153.44 105.69 153.92 106.1 154.49 106.38C156.44 107.36 157.05 104.64 157.15 103.3C157.3 101.1 156.51 98.84 156.21 96.68C155.84 94.07 156.29 89.63 158.02 86.82C156.43 91.24 155.58 101.97 161.12 103.29C161.39 103.36 161.71 103.28 161.8 102.99C162.61 100.15 161.4 97.55 161.05 94.71C160.71 91.99 161.45 84.26 162 83.07C161.54 87.27 162.02 92.4 163.93 95.79C165.08 97.82 167.56 96.35 168.16 94.66C169 92.33 167.74 89.75 167.85 87.3C167.97 84.51 168.23 81.78 168.78 79.06C168.92 78.34 169.21 77.65 169.46 76.94C169.94 75.61 170.6 74.29 171.93 73.67C170.15 75.6 169.89 78.31 169.67 80.77C169.44 83.45 169.2 86.13 170.69 88.54C171.21 89.38 172.72 91.93 174.05 91.04C175.21 90.27 174.73 86.78 174.65 85.6C174.44 83.01 174.81 80.73 175.23 78.2C175.6 75.95 176.34 74.26 177.96 72.58C176.33 75.52 175.94 78.86 176.23 82.17C176.37 83.75 177.37 87.25 179.71 85.79C181.65 84.58 181.03 81.29 181.01 79.41C180.97 76.6 182.57 73.57 183.88 71.18C183.64 72.75 182.91 74.22 182.89 75.83C182.88 76.67 182.85 78.41 183.29 79.08C184.28 80.58 184.78 78.83 185.1 77.95C186.02 75.44 187.24 73.5 188.93 71.46C190.3 69.79 191.94 68.89 193.97 68.24C191.75 69.05 190.73 70.88 189.51 72.74C188.62 74.12 187.26 75.87 188.24 77.59C188.46 77.98 188.89 78.06 188.99 78.45C189.17 79.13 188.57 79.71 188.21 80.22C187.88 80.7 187.74 81.2 187.45 81.69C186.7 82.92 185.16 82.85 184.01 83.49C182.77 84.2 181.81 85.36 180.8 86.35C179.53 87.58 178.25 88.81 176.98 90.03C174.48 92.43 171.95 94.82 169.45 97.23C166.1 100.45 162.69 103.6 159.17 106.62C156.68 108.76 155.3 110.28 154.39 113.36C154.3 113.64 154.19 114.05 154.05 114.53C152.48 114.26 152.58 113.25 152.26 111.52C151.83 109.29 151.53 107.08 151.12 104.89Z" fill="#6D9E02" fill-opacity="1.000000" fill-rule="nonzero"/>
				<path id="Vector" d="M157.1 106.04C158.55 104.03 160.26 102.2 161.86 100.31C165.39 96.13 168.97 91.58 173.23 88.14C177.62 84.6 181.88 81.06 186.53 77.85C190.88 74.84 195.89 71.69 199.43 67.77C200.18 66.95 200.86 65.71 201.32 64.71C201.37 64.6 201.41 64.47 201.45 64.32C201.94 64.09 202.24 64.36 202.22 65.81C202.18 67.71 201.18 69.1 200.56 70.78C199.93 72.47 199.93 74.3 199.84 76.11C199.76 77.82 199.5 79.53 199.32 81.23C198.14 92.28 189.12 100.88 180.64 107.06C175.66 110.68 170.4 114.25 164.04 114.19C162.16 114.17 160.33 114.19 158.46 114.09C157 114.01 155.71 114.71 154.27 114.55C153.5 114.46 153.09 114.23 152.84 113.86C153.9 111.13 155.26 108.6 157.1 106.04Z" fill="#61A304" fill-opacity="1.000000" fill-rule="nonzero"/>
				<g opacity="0.600000">
					<path id="Vector" d="M199.42 67.76C200.18 66.93 200.86 65.7 201.32 64.69C201.37 64.58 201.41 64.45 201.45 64.31C201.93 64.07 202.24 64.35 202.22 65.8C202.22 65.93 202.2 66.07 202.18 66.19C202.1 66.14 202 66.11 201.88 66.11C201.31 66.14 200.76 67.17 200.46 67.58C199.97 68.27 199.37 68.73 198.73 69.26C196.48 71.14 194.06 72.75 191.8 74.64C190.63 75.63 186.05 77.9 185.9 79.53C185.77 81 187.47 80.28 188.59 79.94C189.88 79.55 190.58 78.83 191.73 78.24C192.96 77.61 194.31 77.25 195.46 76.45C196.83 75.49 197.84 74.43 199.04 73.33C198.33 75.27 195.48 76.77 193.8 77.85C191.42 79.37 189.02 80.51 186.33 81.23C184.14 81.84 182.3 82.26 180.61 83.86C180.32 84.12 179.58 84.54 179.83 84.97C180.17 85.55 181.48 85.19 182.03 85.26C183.15 85.43 184.16 85.69 185.32 85.72C187.36 85.78 189.44 85.51 191.47 85.44C193.23 85.36 195.24 84.84 196.78 83.94C193.2 86.04 189.7 87.11 185.5 86.81C184.15 86.71 182.75 86.85 181.41 86.68C180.05 86.5 178.65 86.35 177.36 86.99C176.16 87.59 175.09 88.7 174.07 89.6C172.65 90.84 173.25 91.42 174.87 91.84C177.63 92.55 180.44 92.21 183.18 92.71C185.69 93.16 188.55 92.28 191.05 91.99C193.09 91.77 194.84 91.16 196.46 90.32C196.42 90.39 196.39 90.45 196.36 90.51C196.32 90.58 196.29 90.65 196.23 90.73C193.05 93.46 188.57 93.71 184.44 94.28C183.99 94.29 183.54 94.29 183.09 94.29C180.35 94.24 177.57 94.15 174.83 94.31C172.92 94.43 170.9 94.2 169.7 95.98C169.26 96.65 168.78 97.67 169.38 98.34C169.67 98.65 170.28 98.87 170.66 99C174.24 100.25 178.29 99.89 182.01 100.04C184.35 100.14 186.72 100.14 189.07 99.96C189.05 99.98 189.03 100 189 100.02C189 100.03 188.99 100.04 188.98 100.04C186.64 101.51 183.8 101.47 181.14 101.59C179.76 101.65 178.27 101.83 176.89 101.71C175.62 101.6 174.36 101.55 173.1 101.45C171.23 101.32 169.49 101.1 167.62 101.15C165.17 101.22 161.25 101.95 160.82 104.96C160.54 106.93 164.05 107.92 165.4 108.41C168.49 109.52 172.36 109.31 175.61 109.16C176.34 109.12 177.07 109.08 177.8 109.01C177.48 109.23 177.15 109.45 176.84 109.66C176.07 110.16 174.56 110.14 173.64 110.35C172.37 110.63 170.96 110.2 169.64 110.14C167.06 110.03 163.81 109.89 161.4 108.87C160.35 108.43 156.71 107.25 157.25 109.7C157.8 112.21 161.33 113.62 163.81 114.14C162.01 114.12 160.24 114.14 158.43 114.04C156.97 113.96 155.68 114.67 154.24 114.5C153.47 114.42 153.06 114.19 152.81 113.82C153.75 111.41 154.93 109.17 156.44 106.93C158.03 104.83 159.7 102.77 161.4 100.75C161.54 100.58 161.69 100.42 161.83 100.25C162.03 100.02 162.22 99.78 162.41 99.56C163.06 98.8 163.71 98.04 164.37 97.29C166.75 94.55 169.16 91.65 171.89 89.2C172.32 88.82 172.76 88.44 173.2 88.08C177.59 84.54 181.85 81 186.5 77.79C189.01 76.05 191.79 74.31 194.31 72.29C196.18 70.92 197.93 69.41 199.42 67.76Z" fill="#468E02" fill-opacity="1.000000" fill-rule="nonzero"/>
				</g>
				<g opacity="0.310000">
					<path id="Vector" d="M159.71 110.24C160.71 109.3 165.04 110.62 166.22 110.81C170.84 111.59 174.7 111.39 178.25 107.95C179.33 106.9 180.02 105.99 178.34 105.28C176.23 104.41 171.36 104.96 169.12 105.13C168.03 105.22 161.93 106.03 163.22 103.47C163.91 102.1 167.61 102.3 168.86 102.19C171.76 101.94 174.55 101.84 177.47 102.26C179.26 102.51 182.32 103.59 184.05 102.99C186.18 102.25 189.04 97.33 185.14 97.28C182.35 97.24 179.61 97.33 176.82 97.16C175.87 97.1 170 97.11 171.15 95.66C171.93 94.66 175.46 94.91 176.64 94.78C179.66 94.44 182.96 94.13 185.99 94.26C187.89 94.34 190.99 94.72 191.92 92.47C192.63 90.77 191.01 90.41 189.74 90.16C186.57 89.53 181.87 90.93 179.04 89.08C176.76 87.58 179.81 87.33 181.27 87.13C183.35 86.84 185.45 86.87 187.56 86.82C189.27 86.76 194.03 86.87 193.78 84.1C192.17 83.77 187.22 85.33 186.46 83.06C186 81.72 189.18 81.63 189.94 81.37C192.24 80.59 197.05 78.41 197.51 75.72C195 74.23 192.29 79.27 189.68 78.02C190.54 76.03 192.42 74.82 194.05 73.52C195.55 72.33 197.04 70.66 198.28 68.95C198.67 68.55 199.06 68.16 199.43 67.75C200.18 66.92 200.86 65.69 201.32 64.68C201.38 64.57 201.42 64.44 201.46 64.3C201.94 64.06 202.25 64.34 202.22 65.79C202.18 67.69 201.19 69.08 200.56 70.75C199.93 72.45 199.94 74.27 199.84 76.09C199.76 77.8 199.51 79.51 199.32 81.2C198.14 92.26 189.12 100.86 180.64 107.03C176.45 110.08 172.08 113.08 167.01 113.93C166.36 113.77 165.83 113.33 165.57 112.31C164.44 112.88 158.12 111.74 159.71 110.24Z" fill="#A3CE24" fill-opacity="1.000000" fill-rule="nonzero"/>
				</g>
				<path id="Vector" d="M194.63 72.11C194.78 71.99 194.94 71.87 195.09 71.75C193.55 73.79 190.54 75.68 188.6 77.15C187 78.37 184.03 79.44 182.84 81.06C184.59 81.42 187.44 80.31 189.08 79.57C187.34 81 185.24 81.6 183.09 82.14C181.08 82.66 178.83 83.23 177.93 85.31C179.39 86.7 182.21 85.92 184.01 86.37C181.26 87.11 177.27 86.44 176.19 86.76C174.66 87.21 171.17 91.44 170.73 93.09C171.67 93.35 172.88 92.81 173.88 92.76C174.91 92.7 175.96 92.87 176.98 92.73C174.76 93.61 172.78 93.62 170.52 94.07C168.12 94.55 166.35 96.53 164.93 98.35C167.64 100.6 171.98 99.27 174.9 100.87C173.24 101.72 170.51 100.87 168.73 100.77C166.82 100.67 164.94 100.56 163.1 101.36C161.69 101.98 159.87 103.25 159.93 104.97C159.99 106.78 162.7 108.44 164.19 109.04C162.06 108.97 159.49 106.43 157.34 107.51C155.63 108.36 155.41 110.05 156.31 111.64C157.12 113.08 158.63 113.54 160.07 114.11C159.53 114.09 158.98 114.09 158.43 114.06C156.97 113.97 155.68 114.68 154.25 114.52C153.48 114.43 153.06 114.2 152.81 113.83C153.44 112.21 154.2 110.66 155.07 109.15C158.24 105.34 161.14 101.25 164.27 97.36C167.03 94.07 169.91 90.76 173.21 88.1C177.6 84.56 181.86 81.02 186.51 77.81C189 76.08 191.69 74.31 194.22 72.38C194.37 72.32 194.51 72.21 194.63 72.11Z" fill="#4A8209" fill-opacity="1.000000" fill-rule="nonzero"/>
				<g opacity="0.240000">
					<path id="Vector" d="M166.51 77.92C164.54 79.01 162.67 80.33 160.99 82.07C156.12 87.09 150.78 98.08 155.12 104.9C157.45 103.95 159.11 97.86 160.42 95.71C163.77 90.23 168.76 85.8 173.83 81.9C178.64 78.21 187.22 76.41 189.44 70.17C186.47 68 182.16 70.9 179.55 72.19C175.17 74.31 170.61 75.64 166.51 77.92Z" fill="#CCEA86" fill-opacity="1.000000" fill-rule="nonzero"/>
				</g>
				<g opacity="0.200000">
					<path id="Vector" d="M190.69 93.81C190.69 93.67 190.71 93.56 190.72 93.45C190.71 93.43 190.71 93.42 190.7 93.4C190.67 93.55 190.66 93.68 190.69 93.81Z" fill="#CCEA86" fill-opacity="1.000000" fill-rule="nonzero"/>
				</g>
				<g opacity="0.200000">
					<path id="Vector" d="M187.14 99.62C187.6 98.65 187.53 97.6 188.59 96.95C189.26 96.54 190.12 96.75 190.67 96.06C191.25 95.35 191.14 94.13 190.72 93.45C190.92 92.5 192.01 92.59 192.6 91.89C193.07 91.34 193.09 90.37 193.52 89.76C194.46 88.43 196.57 88.23 197.37 86.92C198.22 85.52 196.99 84.03 197.13 82.74C197.26 81.58 198.39 81.03 198.61 79.91C198.88 78.55 197.68 77.85 197.88 76.71C198.17 74.94 198.94 73.52 198.97 71.68C198.99 70.57 198.81 69.63 198.5 68.71C198.82 68.4 199.14 68.08 199.43 67.75C200.18 66.92 200.86 65.69 201.32 64.68C201.38 64.57 201.42 64.44 201.46 64.3C201.94 64.06 202.25 64.34 202.22 65.79C202.18 67.69 201.19 69.08 200.56 70.75C199.93 72.45 199.94 74.27 199.84 76.09C199.76 77.8 199.51 79.51 199.32 81.2C198.14 92.26 189.12 100.86 180.64 107.03C180.38 107.23 180.12 107.41 179.85 107.6C181.77 106.04 183.42 104.17 185.03 102.31C185.79 101.45 186.65 100.62 187.14 99.62Z" fill="#CCEA86" fill-opacity="1.000000" fill-rule="nonzero"/>
				</g>
				<g opacity="0.250000">
					<path id="Vector" d="M165.32 80.36C164.37 81.16 163.7 82.08 162.81 82.92C161.89 83.8 160.48 83.97 159.72 85.01C159.12 85.85 159.08 87.12 158.75 88.06C158.27 89.39 157.52 90.59 157.03 91.94C156.56 93.22 156.1 94.48 155.76 95.8C155.58 96.54 154.82 97.92 154.87 98.65C154.91 99.25 154.95 99.59 155.76 99.68C157.42 99.89 158.35 97.54 158.76 96.42C159.51 94.32 159.53 91.96 160.9 90.13C161.98 88.67 163.57 87.67 165.06 86.7C167.1 85.36 169.25 83.97 171.2 82.5C173.04 81.13 174 79.35 176.11 78.25C177.07 77.76 177.64 77.21 178.44 76.68C179.34 76.09 188.86 72.3 187.51 71.02C186.41 69.97 181.18 72.99 179.9 73.48C177.1 74.57 174.33 76.17 171.43 76.9C169.06 77.49 167.18 78.8 165.32 80.36Z" fill="#CCEA86" fill-opacity="1.000000" fill-rule="nonzero"/>
				</g>
			</g>
		</g>
		<g filter="url(#filter_95_6322_dd)">
			<rect id="Frame" rx="-0.500000" width="147.780701" height="76.004707" transform="translate(1083.405396 173.619812) rotate(-124.797287)" fill="#FFFFFF" fill-opacity="0"/>
			<g clip-path="url(#clip95_6322)">
				<path id="Vector" d="M1115.16 134.23C1113.72 138.02 1112.41 141.74 1110.79 145.47C1109.54 148.37 1110.02 151.51 1108.61 154.3C1106.8 157.9 1104.87 156.83 1100.89 156.14C1096.12 155.33 1091.42 154.28 1086.67 153.47C1080.29 152.39 1073.91 149.76 1068.63 145.99C1058.23 138.56 1050.59 128.24 1045.37 116.61C1035.64 94.88 1035.06 67.31 1042.11 44.68C1043.67 39.65 1045.64 32.3 1044.06 27.05C1042.97 23.35 1038.99 18.22 1045.47 20.74C1049.3 22.23 1051.38 25.29 1054.31 27.81C1057.28 30.35 1060.98 31.69 1064.57 33.24C1068 34.68 1071.27 36.46 1074.56 38.11C1096.12 48.74 1106.84 73.45 1113.04 95.24C1116.68 108.04 1120.03 121.35 1115.16 134.23Z" fill="#78AF02" fill-opacity="1.000000" fill-rule="nonzero"/>
				<g opacity="0.420000">
					<path id="Vector" d="M1091.37 154.37C1089.81 154.05 1088.24 153.75 1086.68 153.49C1080.3 152.4 1073.93 149.78 1068.64 146.01C1058.25 138.58 1050.6 128.26 1045.38 116.63C1035.64 94.88 1035.06 67.31 1042.11 44.67C1043.67 39.65 1045.64 32.3 1044.06 27.05C1042.97 23.34 1038.99 18.22 1045.47 20.74C1048.39 21.87 1050.3 23.93 1052.32 25.95C1055.03 31.65 1055.06 37.91 1057.19 44.05C1058.09 46.57 1059.16 48.91 1059.81 51.53C1059.98 52.18 1060.51 59.52 1060.22 59.3C1056.56 56.34 1054.81 52.5 1053.15 48.21C1051.72 44.53 1050.31 37.85 1046.76 35.65C1040.17 42.18 1049.59 53.35 1051.87 59.44C1048.5 56.44 1047.4 51.68 1044.3 48.47C1044.78 51.24 1042.35 54.37 1042.56 57.47C1042.78 60.63 1044.27 62.96 1046.69 64.98C1050.51 68.2 1054.18 71.05 1058.31 73.3C1062.72 75.69 1068.3 75.96 1071.18 80.6C1066.89 82.79 1059.31 76.86 1056.06 74.66C1054.18 73.41 1040.46 62.82 1040.86 62.18C1033.43 74.39 1050.48 86.77 1059.65 90.13C1062.71 91.24 1065.89 92.06 1068.98 93.07C1070.57 93.59 1075.57 96.54 1077 96.24C1066.3 98.56 1054.64 92.38 1046.76 85.7C1044.92 84.16 1043.18 82.37 1041.06 81.5C1033.39 89.68 1046.51 97.24 1052.43 99.99C1057.29 102.25 1061.89 105.58 1067.04 107.13C1070.74 108.24 1074.86 107.43 1078.59 108.26C1073.36 110.05 1066.59 108.83 1061.43 107.2C1055.26 105.24 1050.05 99.86 1043.65 98.68C1040.61 102.34 1047.47 111.68 1049.99 114.24C1054.87 119.22 1063.19 121.82 1069.59 124.2C1073.19 125.53 1077.29 125.16 1081.07 125.21C1083.34 125.24 1089.5 127.06 1091.28 126.41C1087.21 127.89 1081.86 127.46 1077.61 126.91C1074.89 126.56 1072.17 126.17 1069.51 125.52C1067.15 124.92 1064.18 122.85 1061.89 122.65C1055.57 122.14 1057.64 127.55 1061.1 129.86C1068.8 134.9 1076.72 137.82 1085.66 139.26C1081.21 138.53 1077.17 139.19 1072.43 137.67C1067.69 136.13 1063.91 132.88 1058.79 132.09C1057.17 137.48 1074.67 145.45 1078.23 147.11C1082.35 149.03 1086.71 149.89 1091.22 150.05C1093.57 150.12 1098.13 149.06 1101.06 149.45C1101.88 149.57 1102.55 149.78 1103.01 150.17C1103.47 150.57 1094.31 153.93 1093.24 154.07C1092.62 154.16 1091.98 154.26 1091.37 154.37Z" fill="#A3CE24" fill-opacity="1.000000" fill-rule="nonzero"/>
				</g>
				<g opacity="0.420000">
					<path id="Vector" d="M1068.64 146.01C1058.25 138.58 1050.6 128.26 1045.38 116.63C1035.64 94.88 1035.06 67.31 1042.11 44.67C1043.67 39.65 1045.64 32.3 1044.06 27.05C1042.97 23.35 1038.99 18.22 1045.47 20.74C1049.14 22.16 1051.18 25.03 1053.93 27.46C1055.93 30.6 1057.35 33.82 1057.29 37.73C1057.28 38.03 1057.27 38.35 1057.24 38.66C1056.78 45.27 1052.82 42.23 1048.63 42.36C1042 42.54 1046.6 50.45 1049.19 53.59C1051.37 56.18 1056.79 58.42 1057.3 61.91C1051.77 63.57 1047.54 57.53 1043.57 54.52C1038.79 62.88 1052.34 70.33 1058.96 72.36C1066.91 74.83 1059.75 77.1 1055.05 76.96C1052.02 76.88 1049.64 76.25 1046.86 75.05C1044.87 74.2 1042.19 72.29 1040.22 72.28C1043.16 77.84 1046.86 82.21 1052.32 85.99C1055.15 87.97 1059.15 90.51 1062.47 91.83C1065.41 93 1069.31 92.84 1071.43 95.39C1069.51 98.75 1059.99 96.45 1057.06 95.54C1050.02 93.35 1045.42 90.18 1039.67 85.87C1038.74 88.62 1041.31 93.06 1042.94 95.29C1045.31 98.51 1049.32 99.96 1052.75 101.85C1056.74 104.08 1060.93 106.42 1065.37 107.55C1068.05 108.24 1075.3 107.49 1076.9 109.46C1074.27 112.42 1067.03 112.56 1063.34 112.62C1056.76 112.74 1049.86 109.81 1044.96 105.45C1044.18 107.8 1048.48 112.82 1050.02 114.59C1058.01 123.66 1070.32 125.42 1081.98 125.79C1084.84 125.88 1088.5 125.02 1085.52 128.75C1083.88 130.79 1081.19 131.44 1078.6 131.56C1070.76 132.01 1063.81 127.13 1056.54 125.26C1059.41 128.03 1062.93 131.4 1066.61 133.08C1072.13 137.66 1081.17 136.54 1086.43 140.87C1081.56 142.57 1076.81 141.67 1072.18 139.6C1069.14 138.24 1065.91 134.46 1062.55 134.14C1059.12 133.78 1059.03 135.77 1060.96 138.32C1064.19 142.64 1071.01 143.62 1075.44 146.25C1077.44 147.44 1078.56 147.16 1076.73 149.54C1076.55 149.77 1076.31 149.99 1076.04 150.18C1073.43 149.04 1070.93 147.64 1068.64 146.01Z" fill="#A3CE24" fill-opacity="1.000000" fill-rule="nonzero"/>
				</g>
				<g opacity="0.420000">
					<path id="Vector" d="M1066.22 132.75C1066.35 132.86 1066.49 132.95 1066.63 133.07C1066.73 133.1 1066.84 133.18 1066.93 133.22C1066.71 133.01 1066.48 132.86 1066.22 132.75Z" fill="#A3CE24" fill-opacity="1.000000" fill-rule="nonzero"/>
				</g>
				<path id="Vector" d="M1086.68 153.49C1080.3 152.4 1073.93 149.78 1068.64 146.01C1067.72 145.36 1066.84 144.63 1065.97 143.94C1067.1 144.66 1068.21 145.34 1069.22 145.85C1074.46 148.51 1082.76 151.43 1088.66 149.78C1090.02 149.39 1091.21 148.72 1092.22 147.78C1095.65 144.55 1090.59 141.28 1087.93 140.07C1083.6 138.14 1078.43 138.05 1073.81 137.07C1068.25 135.86 1059.59 131.65 1055.16 126.04C1062.94 132.55 1084.07 142.28 1090.89 132.02C1091.21 131.53 1091.29 130.82 1090.78 130.41C1085.62 126.66 1079.44 127.18 1073.42 125.77C1067.65 124.44 1052.53 117.18 1050.53 115.18C1058.69 119.24 1069.47 122.09 1077.77 120.75C1082.75 119.92 1081.61 113.79 1078.63 111.31C1074.53 107.87 1068.34 108.51 1063.47 106.45C1057.91 104.13 1052.56 101.59 1047.44 98.43C1046.09 97.61 1044.91 96.51 1043.65 95.47C1041.31 93.51 1039.13 91.19 1038.87 88.02C1041.46 93.07 1046.76 95.62 1051.57 97.9C1056.85 100.37 1062.1 102.85 1068.11 101.62C1070.18 101.2 1076.48 100.04 1075.67 96.68C1074.98 93.74 1067.55 92.11 1065.09 91.41C1059.68 89.9 1055.34 87.45 1050.52 84.72C1046.23 82.28 1043.35 79.52 1041.15 74.97C1045.9 80.49 1052.39 83.76 1059.31 85.63C1062.62 86.52 1070.47 87.11 1069.24 81.29C1068.23 76.43 1061.1 75.26 1057.28 73.89C1051.54 71.88 1046.59 66.38 1042.72 61.94C1045.73 63.58 1048.16 66.18 1051.42 67.41C1053.12 68.05 1056.61 69.41 1058.31 69.01C1062.09 68.13 1058.91 65.81 1057.36 64.49C1052.94 60.77 1049.93 56.84 1047.05 51.9C1044.69 47.87 1044.09 43.88 1044.28 39.27C1044.26 44.39 1047.23 47.83 1050.09 51.68C1052.22 54.52 1054.75 58.58 1058.99 57.86C1059.93 57.71 1060.42 56.9 1061.27 56.99C1062.8 57.14 1063.52 58.79 1064.29 59.89C1065 60.92 1065.93 61.57 1066.69 62.53C1068.64 64.97 1067.35 68.05 1067.8 70.84C1068.31 73.89 1069.93 76.69 1071.18 79.48C1072.75 82.98 1074.28 86.49 1075.81 89.98C1078.81 96.84 1081.77 103.76 1084.81 110.62C1088.82 119.82 1092.68 129.07 1096.18 138.47C1098.67 145.11 1100.73 149.05 1106.28 153.18C1106.79 153.57 1107.55 154.09 1108.39 154.74C1106.68 157.73 1104.72 156.77 1100.96 156.12C1096.13 155.35 1091.43 154.3 1086.68 153.49Z" fill="#6D9E02" fill-opacity="1.000000" fill-rule="nonzero"/>
				<path id="Vector" d="M1093.46 142.23C1090.46 137.79 1088.04 132.95 1085.38 128.3C1079.55 118.04 1072.99 107.39 1069.18 96.16C1065.27 84.62 1061.28 73.35 1058.22 61.53C1055.37 50.46 1052.71 37.97 1047.4 27.87C1046.28 25.73 1044.29 23.43 1042.59 21.74C1042.41 21.55 1042.18 21.37 1041.92 21.18C1041.8 20.03 1042.59 19.61 1045.5 20.74C1049.32 22.24 1051.41 25.3 1054.34 27.81C1057.31 30.35 1061.01 31.7 1064.61 33.25C1068.03 34.69 1071.3 36.47 1074.6 38.12C1096.15 48.75 1106.87 73.45 1113.06 95.24C1116.69 108.05 1120.04 121.37 1115.16 134.23C1113.72 138.02 1112.41 141.74 1110.79 145.47C1109.54 148.37 1110.02 151.51 1108.61 154.3C1107.86 155.8 1107.09 156.47 1106.15 156.7C1101.39 152.5 1097.28 147.87 1093.46 142.23Z" fill="#61A304" fill-opacity="1.000000" fill-rule="nonzero"/>
				<g opacity="0.600000">
					<path id="Vector" d="M1047.37 27.86C1046.25 25.72 1044.26 23.42 1042.56 21.73C1042.38 21.55 1042.15 21.37 1041.89 21.18C1041.77 20.02 1042.56 19.61 1045.47 20.74C1045.75 20.83 1046.01 20.97 1046.25 21.09C1046.07 21.24 1045.93 21.41 1045.87 21.65C1045.5 22.82 1047.16 24.72 1047.79 25.63C1048.81 27.15 1049.3 28.71 1049.9 30.4C1052.04 36.36 1053.5 42.47 1055.65 48.45C1056.77 51.57 1057.97 62.54 1061.16 64.06C1064.05 65.42 1063.86 61.43 1064 58.91C1064.17 56 1063.23 54.05 1062.89 51.29C1062.54 48.32 1062.8 45.29 1062.04 42.38C1061.11 38.89 1059.72 36.05 1058.38 32.79C1061.8 35.68 1062.69 42.57 1063.63 46.79C1064.94 52.74 1065.48 58.46 1064.93 64.46C1064.53 69.35 1064.02 73.39 1065.99 78.02C1066.31 78.79 1066.61 80.61 1067.67 80.43C1069.12 80.16 1069.35 77.24 1069.9 76.17C1071.06 74.04 1072.35 72.18 1073.29 69.84C1074.92 65.76 1075.93 61.35 1077.29 57.17C1078.44 53.54 1078.9 49.08 1078.22 45.29C1079.8 54.11 1079.37 62.01 1075.63 70.3C1074.42 72.95 1073.65 75.9 1072.31 78.49C1070.93 81.13 1069.6 83.85 1069.93 86.94C1070.25 89.82 1071.69 92.81 1072.77 95.57C1074.23 99.37 1075.86 98.58 1077.9 95.61C1081.41 90.54 1082.81 84.58 1085.86 79.39C1088.64 74.64 1089 68.19 1090.28 62.91C1091.34 58.61 1091.42 54.59 1090.92 50.7C1091.02 50.81 1091.13 50.92 1091.23 51.03C1091.35 51.16 1091.47 51.29 1091.57 51.45C1094.74 59.94 1091.9 69.22 1089.99 78.02C1089.67 78.93 1089.34 79.84 1089 80.76C1086.86 86.27 1084.6 91.84 1082.9 97.53C1081.69 101.49 1079.74 105.41 1082.46 109.17C1083.48 110.57 1085.18 112.3 1087 111.57C1087.82 111.23 1088.74 110.15 1089.3 109.47C1094.51 103.14 1096.77 94.67 1099.87 87.23C1101.81 82.57 1103.56 77.76 1104.94 72.86C1104.99 72.91 1105.01 72.98 1105.03 73.04C1105.04 73.06 1105.05 73.08 1105.05 73.11C1106.28 78.93 1104.09 84.67 1102.35 90.16C1101.44 93 1100.69 96.15 1099.42 98.86C1098.26 101.35 1097.22 103.86 1096.07 106.36C1094.41 110.05 1092.67 113.42 1091.39 117.25C1089.69 122.27 1088.26 130.77 1094.05 133.88C1097.82 135.91 1102.44 129.53 1104.44 127.15C1109.02 121.71 1111.46 113.72 1113.59 107.01C1114.06 105.5 1114.5 103.98 1114.92 102.46C1115.11 103.27 1115.31 104.1 1115.5 104.89C1115.96 106.83 1114.79 109.88 1114.53 111.88C1114.15 114.67 1112.23 117.22 1111.14 119.84C1108.98 125 1106.26 131.49 1102.42 135.61C1100.74 137.41 1095.63 143.91 1100.99 144.66C1106.49 145.41 1112 139.29 1114.88 134.66C1113.51 138.29 1112.23 141.9 1110.68 145.5C1109.43 148.39 1109.9 151.54 1108.5 154.33C1107.75 155.82 1106.98 156.49 1106.04 156.73C1101.86 153.02 1098.19 148.97 1094.78 144.24C1091.69 139.43 1088.76 134.52 1085.94 129.56C1085.71 129.14 1085.48 128.73 1085.24 128.32C1084.92 127.75 1084.59 127.19 1084.27 126.62C1083.23 124.74 1082.16 122.86 1081.13 120.96C1077.35 114.09 1073.27 107.04 1070.34 99.68C1069.88 98.52 1069.43 97.36 1069.04 96.18C1065.13 84.65 1061.13 73.37 1058.07 61.55C1056.43 55.17 1054.96 48.21 1052.75 41.62C1051.37 36.79 1049.62 32.12 1047.37 27.86Z" fill="#468E02" fill-opacity="1.000000" fill-rule="nonzero"/>
				</g>
				<g opacity="0.310000">
					<path id="Vector" d="M1103.93 140.06C1102.77 137.34 1108.66 129.53 1109.93 127.28C1114.96 118.5 1117.42 110.53 1113.1 100.75C1111.77 97.77 1110.43 95.7 1107.76 98.59C1104.41 102.21 1101.9 112.5 1100.57 117.18C1099.93 119.44 1097.04 132.43 1092.81 127.89C1090.55 125.47 1093.72 118.14 1094.42 115.52C1096.06 109.45 1097.96 103.72 1100.97 98.1C1102.81 94.66 1107.3 89.25 1107.36 85.29C1107.43 80.42 1099.6 70.95 1096.6 78.82C1094.43 84.46 1092.59 90.08 1090.15 95.62C1089.32 97.51 1084.96 109.41 1082.89 106.01C1081.44 103.67 1084.57 96.7 1085.18 94.2C1086.75 87.82 1088.56 80.9 1091.11 74.85C1092.68 71.07 1095.77 65.06 1091.9 61.49C1088.97 58.79 1087.04 61.81 1085.59 64.19C1081.94 70.16 1081.29 80.72 1075.41 85.1C1070.68 88.6 1072.43 82.22 1073.12 79.11C1074.09 74.68 1075.72 70.44 1077.18 66.14C1078.34 62.62 1082.11 53.05 1076.31 51.48C1074.43 54.5 1073.91 65.7 1068.73 65.56C1065.67 65.48 1067.87 58.98 1067.9 57.25C1068.04 52 1067.19 40.61 1062.09 37.68C1057.19 41.66 1065.41 50.9 1060.91 55.26C1057.52 52.04 1056.48 47.32 1055.06 43.05C1053.76 39.13 1051.47 34.86 1048.92 31.08C1048.42 29.98 1047.91 28.91 1047.36 27.85C1046.24 25.7 1044.25 23.4 1042.55 21.72C1042.37 21.53 1042.13 21.35 1041.87 21.16C1041.76 20.01 1042.54 19.59 1045.46 20.72C1049.29 22.22 1051.36 25.27 1054.29 27.79C1057.27 30.33 1060.97 31.68 1064.56 33.22C1067.99 34.66 1071.26 36.45 1074.56 38.1C1096.1 48.73 1106.81 73.43 1113.02 95.22C1116.07 105.99 1118.91 117.1 1116.84 128.01C1116.05 129.22 1114.75 129.96 1112.48 129.73C1112.81 132.44 1105.79 144.4 1103.93 140.06Z" fill="#A3CE24" fill-opacity="1.000000" fill-rule="nonzero"/>
				</g>
				<path id="Vector" d="M1052.63 40.84C1052.5 40.43 1052.37 40.02 1052.23 39.62C1055.22 44.27 1056.81 51.78 1058.36 56.8C1059.64 60.96 1059.59 67.78 1061.98 71.41C1064.02 68.13 1063.9 61.53 1063.62 57.64C1065.22 62.25 1064.87 66.93 1064.37 71.7C1063.92 76.17 1063.39 81.17 1066.94 84.54C1070.85 82.62 1071.38 76.3 1073.63 73C1073.07 79.12 1068.74 86.71 1068.59 89.13C1068.35 92.58 1074.34 102.82 1077.36 104.93C1078.59 103.23 1078.39 100.37 1079.03 98.29C1079.68 96.16 1080.81 94.16 1081.28 91.99C1081.41 97.14 1079.97 101.16 1079.18 106.1C1078.37 111.31 1081.06 116.37 1083.71 120.62C1090.29 116.81 1090.82 107.01 1096.24 102.28C1096.74 106.28 1092.98 111.17 1091.43 114.72C1089.81 118.51 1088.18 122.25 1088.43 126.56C1088.65 129.89 1089.87 134.52 1093.41 135.69C1097.12 136.93 1102.51 132.65 1104.84 130.09C1103.09 134.35 1096.04 137.68 1096.61 142.83C1097.06 146.93 1100.34 148.64 1104.24 148C1107.76 147.42 1109.81 144.71 1112.03 142.22C1111.6 143.31 1111.18 144.41 1110.71 145.5C1109.46 148.4 1109.93 151.54 1108.53 154.33C1107.78 155.83 1107.01 156.5 1106.06 156.73C1103.25 154.24 1100.68 151.55 1098.25 148.66C1092.89 139.39 1086.76 130.47 1081.21 121.23C1076.59 113.18 1072.01 104.85 1069.09 96.18C1065.17 84.64 1061.18 73.36 1058.12 61.54C1056.48 55.21 1054.9 48.42 1052.86 41.86C1052.85 41.5 1052.74 41.16 1052.63 40.84Z" fill="#4A8209" fill-opacity="1.000000" fill-rule="nonzero"/>
				<g opacity="0.240000">
					<path id="Vector" d="M1043.44 102.18C1044.19 107 1045.48 111.77 1047.76 116.48C1054.29 130.09 1072.62 149.11 1089.68 145.38C1089.49 139.96 1078.37 132.06 1074.99 127.81C1066.37 116.91 1061.1 103.5 1056.98 90.3C1053.09 77.81 1055.81 59.06 1044.81 49.9C1038.19 54.31 1040.88 65.21 1041.54 71.46C1042.57 81.92 1041.89 92.17 1043.44 102.18Z" fill="#CCEA86" fill-opacity="1.000000" fill-rule="nonzero"/>
				</g>
				<g opacity="0.200000">
					<path id="Vector" d="M1093.68 64.98C1093.41 64.88 1093.19 64.77 1092.99 64.65C1092.93 64.66 1092.91 64.65 1092.86 64.66C1093.14 64.83 1093.4 64.94 1093.68 64.98Z" fill="#CCEA86" fill-opacity="1.000000" fill-rule="nonzero"/>
				</g>
				<g opacity="0.200000">
					<path id="Vector" d="M1102.81 76.53C1101.21 74.86 1099.03 74.21 1098.49 71.59C1098.15 69.93 1099.23 68.34 1098.25 66.7C1097.24 65.01 1094.68 64.32 1092.99 64.65C1091.22 63.54 1092.21 61.41 1091.23 59.69C1090.46 58.33 1088.51 57.56 1087.59 56.24C1085.6 53.34 1086.76 48.91 1084.71 46.3C1082.49 43.53 1078.56 44.92 1076.04 43.67C1073.79 42.55 1073.52 39.85 1071.42 38.57C1068.86 37.01 1066.53 38.92 1064.37 37.68C1061.01 35.75 1058.69 33.15 1054.99 31.7C1052.75 30.83 1050.71 30.51 1048.62 30.45C1048.22 29.57 1047.81 28.69 1047.36 27.85C1046.24 25.7 1044.25 23.4 1042.55 21.72C1042.37 21.53 1042.13 21.35 1041.87 21.16C1041.76 20.01 1042.54 19.59 1045.46 20.72C1049.29 22.22 1051.36 25.27 1054.29 27.79C1057.27 30.33 1060.97 31.68 1064.56 33.22C1067.99 34.66 1071.26 36.45 1074.56 38.1C1096.1 48.73 1106.81 73.43 1113.02 95.22C1113.23 95.89 1113.4 96.56 1113.59 97.25C1111.84 92.2 1109.28 87.45 1106.69 82.8C1105.54 80.63 1104.5 78.26 1102.81 76.53Z" fill="#CCEA86" fill-opacity="1.000000" fill-rule="nonzero"/>
				</g>
				<g opacity="0.250000">
					<path id="Vector" d="M1047.5 106.42C1048.41 108.94 1049.78 110.99 1050.84 113.42C1051.93 115.94 1051.22 118.93 1052.77 121.23C1054.03 123.09 1056.56 124.12 1058.23 125.49C1060.56 127.44 1062.44 129.87 1064.81 131.86C1067.06 133.77 1069.28 135.64 1071.69 137.3C1073.05 138.23 1075.29 140.81 1076.81 141.25C1078.06 141.62 1078.78 141.78 1079.57 140.2C1081.22 137 1077.16 133.35 1075.18 131.69C1071.5 128.61 1066.71 126.8 1064.03 122.67C1061.87 119.38 1061.03 115.41 1060.17 111.66C1058.98 106.55 1057.75 101.14 1056.24 96.08C1054.82 91.33 1051.92 88.06 1051.27 82.96C1050.99 80.66 1050.31 79.08 1049.82 77.06C1049.29 74.81 1048.72 52.66 1045.12 54.45C1042.16 55.91 1044.39 68.77 1044.43 71.72C1044.55 78.21 1045.73 85.02 1045.04 91.45C1044.47 96.68 1045.73 101.49 1047.5 106.42Z" fill="#CCEA86" fill-opacity="1.000000" fill-rule="nonzero"/>
				</g>
			</g>
		</g>
		<rect id="Frame" rx="-0.500000" width="22.690001" height="17.670000" transform="translate(1026.362549 19.076721) rotate(101.044716)" fill="#FFFFFF" fill-opacity="0"/>
		<g clip-path="url(#clip95_6341)">
			<path id="Vector" d="M1021.47 37.6C1020.33 39.38 1018.45 40.09 1016.42 40.46C1014.09 40.88 1012.6 40.04 1011.42 37.94C1009.72 34.87 1009.04 30.78 1008.3 27.35C1007.73 24.76 1007.3 21.7 1007.32 19.09C1007.33 18.09 1006.98 16.72 1007.47 15.8C1009.02 12.89 1017.32 21.69 1018.42 22.9C1022.1 26.94 1024.72 32.49 1021.47 37.6Z" fill="#757575" fill-opacity="1.000000" fill-rule="nonzero"/>
			<path id="Vector" d="M1021.47 37.6C1022.72 35.63 1023.09 33.6 1022.88 31.61C1022.5 33.4 1021.79 34.24 1020.47 35.38C1018.25 37.29 1015.2 34.93 1013.99 32.65C1009.62 24.4 1008.24 17.16 1008.32 15.22C1007.95 15.26 1007.66 15.44 1007.46 15.8C1006.98 16.72 1007.32 18.09 1007.31 19.09C1007.29 21.7 1007.72 24.77 1008.29 27.35C1009.04 30.78 1009.71 34.87 1011.41 37.94C1012.59 40.04 1014.08 40.88 1016.41 40.46C1018.45 40.1 1020.33 39.38 1021.47 37.6Z" fill="#575959" fill-opacity="1.000000" fill-rule="nonzero"/>
			<path id="Vector" d="M1022.36 35.79C1019.02 34.51 1017.12 31.21 1015.67 27.98C1015.37 27.29 1015.04 26.61 1014.73 25.92C1014.99 26.54 1015.24 27.15 1015.51 27.75C1016.74 30.49 1018.38 36.16 1021.84 36.95C1022.04 36.56 1022.21 36.18 1022.36 35.79Z" fill="#D1D1D1" fill-opacity="1.000000" fill-rule="nonzero"/>
			<path id="Vector" d="M1013.47 28.58C1012.61 26.68 1010.11 19.4 1009.63 18.03C1009.53 17.78 1009.46 17.54 1009.38 17.29C1009.75 19.54 1011.74 26.26 1012.8 28.78C1014.59 32.98 1017.22 36.84 1019.82 39.24C1020.22 38.99 1020.57 38.68 1020.9 38.32C1017.2 36.3 1014.99 31.96 1013.47 28.58Z" fill="#D1D1D1" fill-opacity="1.000000" fill-rule="nonzero"/>
			<path id="Vector" d="M1008.43 23.7C1008.91 26.4 1009.4 29.12 1010.36 31.7C1011.66 35.18 1013.57 38.13 1016.12 40.49C1016.23 40.48 1016.32 40.47 1016.41 40.46C1017.4 40.28 1018.35 40.02 1019.2 39.59C1018.55 39.44 1017.94 39.13 1017.43 38.58C1015.38 36.3 1013.81 33.44 1012.59 30.64C1011.14 27.32 1009.73 23.8 1008.81 20.29C1008.35 18.56 1008.43 16.89 1008.54 15.21C1008.31 15.21 1008.12 15.24 1007.94 15.33C1007.51 18.1 1007.95 20.96 1008.43 23.7Z" fill="#959C9C" fill-opacity="1.000000" fill-rule="nonzero"/>
			<path id="Vector" d="M1008.4 20.77C1008.72 27.71 1012.17 34.95 1016.75 40.39C1017.17 40.31 1017.55 40.21 1017.93 40.1C1014.86 37.21 1012.37 33.73 1010.81 29.77C1009.71 26.98 1008.69 23.69 1008.37 20.45C1008.36 20.48 1008.37 20.52 1008.36 20.55C1008.39 20.62 1008.4 20.69 1008.4 20.77Z" fill="#D1D1D1" fill-opacity="1.000000" fill-rule="nonzero"/>
			<g opacity="0.410000">
				<path id="Vector" d="M1010.03 17.46C1009.56 16.99 1008.93 15.9 1010.12 16.27C1010.89 16.52 1011.5 17.2 1012.12 17.67C1014.47 19.43 1016.29 21.57 1018.21 23.75C1020.25 26.05 1023.07 29.62 1022 32.89C1021.58 34.15 1020.78 34.38 1019.85 33.35C1018.58 31.97 1017.8 30.03 1016.9 28.4C1015.28 25.42 1013.9 22.31 1011.85 19.59C1011.28 18.83 1010.68 18.11 1010.03 17.46Z" fill="#A5AAAA" fill-opacity="1.000000" fill-rule="nonzero"/>
			</g>
			<path id="Vector" d="M1014.2 20.93C1015.09 21.99 1016.08 23.01 1016.78 24.19C1017.59 25.54 1018.62 26.78 1019.49 28.1C1019.85 28.65 1020.2 29.21 1020.56 29.76C1020.73 30.02 1021.15 30.75 1021.38 30.15C1021.51 29.79 1020.92 28.97 1020.77 28.68C1020.41 28 1020.08 27.32 1019.68 26.68C1019 25.61 1018.16 24.61 1017.39 23.59C1016.37 22.25 1015.36 21.03 1014.12 19.91C1013.77 19.58 1012.97 18.5 1012.49 18.6C1012.59 19.29 1013.54 20.1 1013.97 20.63C1014.04 20.73 1014.12 20.82 1014.2 20.93Z" fill="#A5AAAA" fill-opacity="1.000000" fill-rule="nonzero"/>
		</g>
		<rect id="Frame" rx="-0.500000" width="60.000000" height="35.000000" transform="translate(989.952515 2.253845) rotate(129.201630)" fill="#FFFFFF" fill-opacity="0"/>
		<g clip-path="url(#clip95_6361)">
			<path id="Vector" d="M934.8 33.21C934.96 32.84 935.2 32.44 935.5 32.01C938.04 28.34 936.11 25.78 936.02 21.55C935.94 14.74 938 9.3 941.71 3.72C946.98 -4.21 955.22 -11.9 964.97 -13.41C975.31 -15.01 980.48 -3.35 979.65 4.86C978.75 14.31 973.68 22.96 966.26 28.78C962.52 31.69 958.26 33.91 953.69 35.18C949.34 36.42 944.7 35.11 940.49 36.37C937 37.39 933.15 36.74 934.8 33.21Z" fill="#FCE1A7" fill-opacity="1.000000" fill-rule="nonzero"/>
			<path id="Vector" d="M949.68 0.09C952.78 -2.92 956.95 -6.13 961 -7.71C962.98 -8.48 964.62 -9.54 966.8 -9.83C969.12 -10.14 972.12 -9.86 973.96 -8.22C976.42 -6.01 978.38 -1.81 977.43 1.48C977.13 -3.88 971.14 -6.45 966.34 -5.6C963.67 -5.14 961.16 -3.96 958.87 -2.52C955.64 -0.49 952.37 2.2 950.01 5.21C947.48 8.42 945.8 12.95 944.42 16.76C943.02 20.66 942.4 24.7 941.27 28.65C940.93 29.86 940.28 30.96 939.57 32C938.83 33.08 937.57 35.29 936.35 35.7C936.23 35.56 936.27 35.43 936.33 35.27C936.74 34.27 937.65 33.37 938.21 32.41C939.79 29.66 939.8 27.04 939.91 23.94C939.94 22.81 939.99 21.66 940.12 20.55C940.6 16.66 942.11 12.97 943.58 9.37C944.92 6.11 947.02 2.66 949.68 0.09Z" fill="#F2CF91" fill-opacity="1.000000" fill-rule="nonzero"/>
			<path id="Vector" d="M976.45 -8.03C975.42 -8.87 974.21 -9.74 972.15 -10.43C968.87 -11.48 967.22 -11.17 963.8 -10.27C956.12 -8.3 949.36 -2.67 945.01 3.67C942.42 7.44 940.97 11.92 939.96 16.38C938.35 23.47 939.77 26.44 938.21 30.76C937.68 32.21 934.98 35.56 936.62 36.71C934.86 36.44 933.8 35.35 934.81 33.19C934.97 32.82 935.21 32.42 935.51 31.99C938.05 28.32 936.12 25.77 936.03 21.53C935.95 14.73 938.01 9.28 941.72 3.7C946.99 -4.22 955.23 -11.91 964.98 -13.43C970.11 -14.2 973.96 -11.73 976.45 -8.03Z" fill="#F2CF91" fill-opacity="1.000000" fill-rule="nonzero"/>
			<g opacity="0.340000">
				<path id="Vector" d="M942.76 28.62C943.6 27.09 944.24 25.43 944.87 23.6C947.59 15.76 951.26 8.1 956.94 2.05C960.33 -1.54 972.36 -8.82 975.12 -0.9C976.6 3.36 975.03 8.93 973.35 12.93C970.56 19.58 964.96 26.4 958.44 29.66C956.59 30.58 954.56 31.14 952.55 31.68C948.83 32.68 945.15 31.38 941.65 33.42C940.74 33.95 937.03 35.12 939.23 33.11C940.77 31.73 941.88 30.24 942.76 28.62Z" fill="#FFF5CA" fill-opacity="1.000000" fill-rule="nonzero"/>
			</g>
			<g opacity="0.720000">
				<path id="Vector" d="M975.57 -9.2C973.78 -10.67 971.96 -11.83 969.35 -12.07C962.66 -12.7 955.59 -8.63 950.7 -4.31C944.66 1.02 941.55 6.59 939.48 13.19C938.4 16.68 938.14 21.41 938.43 24.95C938.82 29.68 936.38 30.85 935.46 35.22C935.38 35.66 935.43 36.07 935.59 36.43C934.5 35.92 934.03 34.9 934.81 33.22C934.98 32.85 935.21 32.45 935.52 32.02C938.05 28.35 936.12 25.79 936.03 21.56C935.95 14.75 938.01 9.31 941.72 3.73C947 -4.19 955.23 -11.89 964.98 -13.4C969.54 -14.12 973.09 -12.23 975.57 -9.2Z" fill="#ECBB70" fill-opacity="1.000000" fill-rule="nonzero"/>
			</g>
			<path id="Vector" d="M939.8 21.31C939.88 20.53 939.99 19.76 940.14 18.99C940.32 18.09 940.6 17.22 940.89 16.36C942.2 12.4 943.58 7.75 946.02 4.34C948.62 0.7 951.79 -2.54 955.49 -5.03C957.11 -6.12 963.21 -10.41 969.84 -10.01C971.62 -9.9 973.83 -8.85 975.51 -6.89C977.21 -4.88 977.94 -1.97 978.06 0.65C978.43 8.85 975.93 17.29 970.32 23.44C967.05 27.03 962.81 30.08 958.37 31.99C954.85 33.51 951.47 34.46 947.66 34.04C945.88 33.84 944.11 34.61 942.41 35.27C940.92 35.83 939.32 36.48 937.74 35.95C939.85 36.08 941.78 34.83 943.77 34.04C948.45 32.17 950.98 34.77 958.52 31.04C963.27 28.7 967.16 24.96 970.4 20.74C971.88 18.81 973.33 16.81 974.33 14.6C976.41 9.96 976.93 4.78 976.22 -0.23C976.04 -1.47 975.78 -2.68 975.21 -3.77C974.22 -5.58 972.35 -6.78 970.36 -7.31C968.74 -7.74 966.97 -7.8 965.31 -7.56C950.99 -5.6 941.59 9.63 940.91 23.17C940.79 25.53 940.88 28.02 939.86 30.16C938.94 32.08 937.21 33.55 936.45 35.55C936.81 33.96 937.81 33.04 938.5 31.67C938.97 30.72 939.13 29.38 939.28 28.33C939.62 26.01 939.58 23.63 939.8 21.31Z" fill="#ECBB70" fill-opacity="1.000000" fill-rule="nonzero"/>
			<path id="Vector" d="M977 3.5C977.1 6.47 976.53 10 975.52 12.78C973.66 17.89 970.72 22.33 966.73 25.97C963.64 28.77 957.92 32.49 953.05 33.27C950.3 33.71 947.91 33.43 945.13 33.83C944.4 33.94 943.26 34.39 942.52 34.57C942.93 34.38 943.33 34.2 943.74 34.03C948.42 32.16 950.94 34.77 958.48 31.04C963.23 28.69 967.12 24.95 970.36 20.73C971.84 18.8 973.29 16.8 974.3 14.59C976.41 9.96 976.93 4.78 976.22 -0.23C976.13 -0.85 976.01 -1.43 975.85 -2.01C976 -1.83 976.89 0.97 977 3.5Z" fill="#C59C5F" fill-opacity="1.000000" fill-rule="nonzero"/>
			<path id="Vector" d="M973.53 -8.66C970.59 -9.67 967.35 -9.72 964 -8.92C961.16 -8.24 953.54 -4.02 946.95 3.76C943.46 7.86 940.6 18.36 940.36 20.26C939.75 22.38 941.04 28.74 938.05 32.88C937.56 33.55 937.09 34.21 936.72 34.93C936.67 35 936.61 35.07 936.55 35.14C936.98 33.8 937.84 32.91 938.48 31.68C938.96 30.73 939.12 29.4 939.27 28.34C939.62 26.01 939.58 23.63 939.8 21.31C939.88 20.53 939.99 19.76 940.14 18.99C940.32 18.09 940.6 17.22 940.89 16.36C942.2 12.4 943.58 7.75 946.02 4.34C948.62 0.7 951.79 -2.54 955.49 -5.03C957.11 -6.12 963.21 -10.41 969.84 -10.01C970.99 -9.94 972.31 -9.48 973.53 -8.66Z" fill="#C59C5F" fill-opacity="1.000000" fill-rule="nonzero"/>
			<g opacity="0.510000">
				<path id="Vector" d="M968.69 20.65C965.55 24.78 961.5 28.21 957.12 29.72C954.86 30.47 951.16 31.89 948.78 31.18C946.09 30.33 946.47 27.24 948.25 25.67C950.7 23.53 954.09 22.24 956.65 20.21C959.34 18.15 961.77 15.78 963.79 13.1C964.37 12.37 964.92 11.61 965.42 10.81C966.74 8.79 967.89 6.74 968.93 4.59C969.61 3.32 970.46 0.88 972.17 0.77C976.25 0.57 974.64 6.7 974.1 9.06C973.32 12.93 971.37 17.05 968.69 20.65Z" fill="#FFF5CA" fill-opacity="1.000000" fill-rule="nonzero"/>
			</g>
			<g opacity="0.660000">
				<path id="Vector" d="M963.19 19.19C965.78 16.13 968.01 12.78 970.1 9.37C970.66 8.44 971.89 5.25 973.45 5.86C974.85 6.41 973.89 9.18 973.56 10.17C971.35 16.99 966.15 22.42 960.66 27.08C959.77 27.83 952.82 31.18 953.79 27.55C954.09 26.45 957.69 24.65 958.61 23.85C960.27 22.41 961.78 20.84 963.19 19.19Z" fill="#FFFAE6" fill-opacity="1.000000" fill-rule="nonzero"/>
			</g>
			<g opacity="0.510000">
				<path id="Vector" d="M949.17 -0.78C949.26 -0.87 949.36 -0.97 949.48 -1C949.61 -1.04 949.77 -1 949.81 -0.87C949.85 -0.75 949.78 -0.64 949.72 -0.54C948.8 0.87 947.62 2.07 946.62 3.42C945.42 5.06 944.55 6.9 943.72 8.72C943.3 9.66 942.89 10.58 942.46 11.5C942.27 11.89 941.61 13.88 941.02 13.51C940.56 13.23 941.13 12.15 941.24 11.78C941.54 10.89 941.88 10 942.25 9.12C943.02 7.36 943.95 5.66 945.02 4.07C946.26 2.33 947.64 0.7 949.17 -0.78Z" fill="#FFFAE6" fill-opacity="1.000000" fill-rule="nonzero"/>
			</g>
			<g opacity="0.510000">
				<path id="Vector" d="M957.01 -6.48C956.84 -6.39 956.69 -6.28 956.52 -6.19C955.48 -5.53 954.52 -4.77 953.54 -4.02C953.37 -3.89 952.07 -3.25 952.42 -4.05C952.46 -4.15 952.56 -4.21 952.64 -4.28C953.46 -4.93 954.26 -5.6 955.11 -6.2C956.26 -6.99 957.47 -7.69 958.72 -8.29C961.2 -9.5 963.87 -10.33 966.59 -10.84C966.95 -10.91 967.36 -10.97 967.63 -10.72C967.62 -10.53 967.44 -10.4 967.27 -10.3C966.58 -9.93 965.74 -9.85 964.99 -9.66C964.12 -9.44 963.25 -9.29 962.4 -9C961.45 -8.68 960.51 -8.28 959.63 -7.82C958.75 -7.38 957.86 -6.96 957.01 -6.48Z" fill="#FFFAE6" fill-opacity="1.000000" fill-rule="nonzero"/>
			</g>
			<g opacity="0.510000">
				<path id="Vector" d="M954.03 33.96C955.37 33.64 956.63 33.03 957.9 32.47C962.81 30.35 966.68 27.68 970.22 23.58C970.46 23.32 970.8 23.12 971.1 22.91C971.18 22.84 971.31 22.76 971.4 22.81C971.53 22.9 971.44 23.12 971.33 23.23C969.34 25.5 967.29 27.61 964.82 29.37C962.5 31.04 959.85 32.69 957.16 33.64C955.29 34.44 953.2 34.94 951.18 35.23C949.21 35.52 947.07 35.23 945.09 35.23C944.89 35.22 944.7 35.23 944.52 35.15C944.53 34.99 944.67 34.9 944.81 34.84C946.16 34.19 947.99 34.33 949.46 34.35C950.97 34.4 952.54 34.29 954.03 33.96Z" fill="#FFFAE6" fill-opacity="1.000000" fill-rule="nonzero"/>
			</g>
		</g>
	</g>
</svg>
