<svg width="19.815338" height="20.856812" viewBox="0 0 19.8153 20.8568" fill="none" xmlns="http://www.w3.org/2000/svg" xmlns:xlink="http://www.w3.org/1999/xlink">
	<desc>
			Created with Pixso.
	</desc>
	<defs/>
	<path id="Vector" d="M4.34 7.65C3.76 8 3.15 8.21 2.5 8.28C2.06 8.33 1.65 8.27 1.3 8.14C0.73 7.91 0.3 7.51 0.04 6.93C-0.02 6.8 -0.02 6.65 0.04 6.51C0.28 5.92 0.69 5.51 1.26 5.26C1.6 5.11 2.02 5.06 2.45 5.09C3.36 5.16 4.18 5.5 4.98 6.11L5.41 6.1C5.5 5.73 5.7 5.39 5.97 5.11L5.74 4.73C4.81 4.37 4.08 3.84 3.56 3.11C3.29 2.76 3.13 2.38 3.08 2.01C2.98 1.39 3.13 0.83 3.49 0.32C3.58 0.2 3.71 0.12 3.86 0.1C4.48 0.02 5.05 0.16 5.54 0.54C5.84 0.76 6.1 1.09 6.29 1.48C6.68 2.3 6.79 3.19 6.66 4.18L6.89 4.56C7.26 4.45 7.66 4.44 8.03 4.54L8.24 4.16C8.08 3.17 8.18 2.28 8.54 1.46C8.72 1.06 8.97 0.72 9.26 0.49C9.75 0.11 10.31 -0.06 10.94 0.01C11.08 0.02 11.21 0.1 11.31 0.22C11.69 0.72 11.85 1.28 11.77 1.89C11.73 2.26 11.57 2.65 11.32 3.02C10.95 3.55 10.48 3.99 9.9 4.34C9.67 4.47 9.43 4.59 9.17 4.7L8.96 5.07C9.1 5.2 9.22 5.34 9.33 5.51C9.43 5.68 9.49 5.86 9.54 6.04L9.98 6.04C10.76 5.41 11.57 5.05 12.48 4.95C12.91 4.9 13.33 4.95 13.68 5.09C14.25 5.31 14.67 5.72 14.93 6.29C14.99 6.43 14.99 6.58 14.94 6.72C14.74 7.2 14.43 7.57 14.01 7.81C13.92 7.87 13.82 7.92 13.72 7.96C13.38 8.11 12.96 8.16 12.52 8.13C11.62 8.06 10.8 7.72 10 7.11L9.57 7.12C9.49 7.49 9.29 7.83 9.02 8.1C9.1 8.24 9.18 8.37 9.26 8.5C10.18 8.86 10.9 9.38 11.42 10.1C11.69 10.46 11.85 10.84 11.91 11.21C11.96 11.59 11.92 11.94 11.8 12.28C12.19 12.83 12.59 13.35 12.98 13.85C13.03 13.46 13.14 13.08 13.34 12.71C13.77 11.92 14.49 11.35 15.42 11.06C16.15 10.84 16.91 10.8 17.66 10.94C17.85 10.98 18.01 11.11 18.08 11.3C18.14 11.48 18.09 11.69 17.96 11.83C17.58 12.23 17.11 12.94 17 13.66C16.84 14.77 16.23 15.42 15.54 15.83C15.33 15.95 15.13 16.04 14.92 16.13C16.61 17.94 18.16 19.14 19.46 19.62C19.74 19.73 19.88 20.03 19.78 20.31C19.73 20.43 19.65 20.53 19.55 20.59C19.41 20.67 19.25 20.69 19.09 20.63C18.15 20.28 17.19 19.66 16.24 18.88L16.17 18.92C15.78 19.25 15.35 19.59 14.87 19.87C13.97 20.41 12.9 20.76 11.66 20.51C10.78 20.34 9.59 20.57 8.84 20.82C8.64 20.89 8.41 20.83 8.27 20.67C8.14 20.51 8.1 20.28 8.2 20.08C8.61 19.25 9.2 18.48 9.96 17.82C10.9 16.99 11.98 16.48 13.08 16.35C13.27 16.33 13.46 16.32 13.64 16.32C13.62 16.3 13.6 16.27 13.59 16.25C12.67 15.22 11.83 14.14 11.08 13.12C10.47 13.19 9.92 13.05 9.44 12.68C9.14 12.46 8.88 12.13 8.69 11.74C8.31 10.92 8.19 10.03 8.32 9.04L8.09 8.67C7.72 8.78 7.32 8.78 6.95 8.68L6.74 9.06C6.89 10.05 6.8 10.94 6.44 11.76C6.26 12.17 6.01 12.5 5.72 12.73C5.63 12.8 5.54 12.86 5.45 12.92C5.03 13.16 4.56 13.27 4.05 13.21C3.9 13.19 3.77 13.12 3.67 13C3.29 12.5 3.13 11.94 3.21 11.33C3.26 10.96 3.41 10.57 3.66 10.2C4.18 9.46 4.88 8.91 5.81 8.53L6.02 8.14C5.88 8.01 5.76 7.87 5.66 7.7C5.55 7.53 5.49 7.35 5.44 7.17L5.01 7.18C4.78 7.36 4.57 7.52 4.34 7.65ZM2.37 6.16C2.1 6.14 1.86 6.16 1.67 6.25C1.44 6.34 1.27 6.49 1.14 6.7C1.27 6.9 1.45 7.04 1.69 7.14C1.88 7.21 2.12 7.24 2.39 7.21C2.93 7.15 3.43 6.97 3.91 6.66C3.41 6.36 2.91 6.2 2.37 6.16ZM10.43 2.41C10.59 2.19 10.68 1.97 10.7 1.77C10.73 1.52 10.69 1.29 10.58 1.07C10.33 1.08 10.12 1.17 9.92 1.33C9.77 1.45 9.62 1.65 9.52 1.9C9.3 2.39 9.2 2.91 9.23 3.49C9.73 3.21 10.13 2.86 10.43 2.41ZM12.6 7.07C12.87 7.09 13.1 7.06 13.29 6.98C13.52 6.88 13.7 6.73 13.83 6.53C13.7 6.32 13.51 6.18 13.28 6.09C13.09 6.01 12.85 5.99 12.58 6.02C12.04 6.08 11.55 6.26 11.06 6.57C11.55 6.86 12.06 7.02 12.6 7.07ZM15.95 13.5C16.03 12.94 16.27 12.4 16.55 11.94C16.27 11.96 16 12.01 15.73 12.09C15.27 12.23 14.64 12.54 14.27 13.22C14.06 13.62 13.84 14.25 14.26 15.24C15.33 14.87 15.82 14.38 15.95 13.5ZM4.53 10.81C4.38 11.03 4.29 11.26 4.26 11.46C4.24 11.71 4.27 11.94 4.39 12.16C4.63 12.14 4.85 12.06 5.04 11.9C5.2 11.77 5.34 11.57 5.45 11.33C5.67 10.83 5.77 10.31 5.74 9.74C5.23 10.01 4.84 10.37 4.53 10.81ZM4.9 1.4C4.7 1.25 4.48 1.17 4.23 1.16C4.13 1.38 4.09 1.6 4.13 1.86C4.16 2.06 4.26 2.28 4.41 2.5C4.74 2.94 5.14 3.28 5.65 3.54C5.66 2.96 5.55 2.45 5.31 1.96C5.2 1.71 5.06 1.52 4.9 1.4ZM13.2 17.41C12.32 17.52 11.44 17.94 10.65 18.62C10.35 18.89 10.07 19.18 9.83 19.48C10.51 19.37 11.24 19.34 11.87 19.47C13 19.69 14.07 19.3 15.41 18.17C14.84 17.53 14.14 17.3 13.2 17.41ZM10.07 11.83C10.27 11.98 10.49 12.06 10.73 12.06C10.84 11.85 10.88 11.62 10.84 11.37C10.81 11.17 10.71 10.95 10.55 10.73C10.23 10.29 9.83 9.94 9.32 9.68C9.31 10.26 9.42 10.78 9.65 11.26C9.76 11.51 9.91 11.7 10.07 11.83ZM8.03 7.53C8.54 7.23 8.7 6.57 8.4 6.06C8.1 5.56 7.44 5.39 6.94 5.69C6.43 5.99 6.26 6.65 6.56 7.16C6.87 7.66 7.53 7.83 8.03 7.53Z" fill="#359740" fill-opacity="1.000000" fill-rule="nonzero"/>
</svg>
