<svg width="14.000000" height="18.000000" viewBox="0 0 14 18" fill="none" xmlns="http://www.w3.org/2000/svg" xmlns:xlink="http://www.w3.org/1999/xlink">
	<desc>
			Created with Pixso.
	</desc>
	<defs/>
	<path id="Vector" d="M5.25 1.62L3.72 0.21C3.42 -0.08 2.93 -0.08 2.62 0.21L1.1 1.62C0.4 2.27 0 3.18 0 4.13L0 10.12C0 10.6 0.39 11.01 0.87 11.01L2.66 11.01L2.66 12.58C2.26 12.77 1.94 13.18 1.94 13.67L1.94 16.81C1.94 17.47 2.5 18 3.17 18L3.17 18C3.84 18 4.37 17.47 4.37 16.81L4.37 13.67C4.37 13.18 4.09 12.77 3.69 12.58L3.69 11L3.69 8.48C3.69 8.29 3.84 8.16 4.03 8.16L4.03 8.16C4.22 8.16 4.37 8.29 4.37 8.48L4.37 11.01L5.46 11.01C5.94 11.01 6.36 10.6 6.36 10.12L6.36 4.13C6.36 3.18 5.95 2.27 5.25 1.62ZM13.49 0.42L13.45 0.42C13.15 0.42 12.92 0.64 12.92 0.93L12.92 3.7C12.92 4.11 12.58 4.45 12.17 4.45L12.17 4.45C11.76 4.45 11.41 4.11 11.41 3.7L11.41 0.93C11.41 0.64 11.2 0.42 10.9 0.42L10.9 0.42C10.6 0.42 10.38 0.64 10.38 0.93L10.38 3.7C10.38 4.11 10.04 4.45 9.63 4.45L9.63 4.45C9.22 4.45 8.9 4.11 8.9 3.7L8.9 0.93C8.9 0.64 8.65 0.42 8.36 0.42L8.36 0.42C8.06 0.42 7.83 0.64 7.83 0.93L7.83 10.08C7.83 10.58 8.24 11.01 8.74 11.01L10.42 11.01L10.42 12.58C9.98 12.77 9.7 13.18 9.7 13.67L9.7 16.81C9.7 17.47 10.25 18 10.92 18L10.92 18C11.59 18 12.13 17.47 12.13 16.81L12.13 13.67C12.13 13.18 11.85 12.77 11.41 12.58L11.41 8.44C11.49 8.27 11.59 8.14 11.77 8.14C11.96 8.14 12.13 8.29 12.13 8.48L12.13 11.01L13.11 11.01C13.61 11.01 14 10.58 14 10.08L14 0.93C14 0.64 13.78 0.42 13.49 0.42Z" fill="#359740" fill-opacity="1.000000" fill-rule="nonzero"/>
</svg>
