<svg width="28.000000" height="28.000000" viewBox="0 0 28 28" fill="none" xmlns="http://www.w3.org/2000/svg" xmlns:xlink="http://www.w3.org/1999/xlink">
	<desc>
			Created with Pixso.
	</desc>
	<defs/>
	<rect id="Frame 16" rx="-0.500000" width="27.000000" height="27.000000" transform="translate(0.500000 0.500000)" fill="#FFFFFF" fill-opacity="0"/>
	<path id="Vector" d="M23.81 25.86C23.92 25.69 23.96 25.49 23.91 25.29C23.87 25.1 23.76 24.93 23.59 24.82C22.78 24.3 21.84 23.68 20.83 22.98C21.22 21.4 21.48 19.79 21.59 18.16C21.75 15.29 21.26 12.98 20.12 11.16C17.91 7.66 13.69 6.8 10.3 6.1C8.22 5.68 6.25 5.28 5.45 4.38C5.35 4.28 5.23 4.2 5.09 4.16C4.96 4.12 4.81 4.12 4.68 4.16C4.54 4.2 4.42 4.28 4.33 4.39C4.23 4.5 4.17 4.63 4.15 4.77C4.06 5.22 2.59 15.61 8.09 21.07C10.8 23.76 14.69 24.75 19.69 24.02C20.81 24.83 21.86 25.49 22.78 26.08C22.94 26.18 23.15 26.22 23.34 26.18C23.53 26.14 23.7 26.02 23.81 25.86ZM9.13 20.01C5.25 16.17 5.34 9.16 5.5 6.28C6.93 6.92 8.45 7.35 10 7.58C13.28 8.25 16.98 9 18.85 11.96C20.29 14.24 20.5 17.56 19.5 22.05C15.56 19.21 11.12 15.34 9.74 10.91C9.67 10.73 9.54 10.58 9.37 10.5C9.2 10.41 9 10.4 8.82 10.46C8.63 10.51 8.48 10.64 8.39 10.8C8.29 10.97 8.27 11.17 8.31 11.35C9.73 15.94 13.95 19.8 17.86 22.7C14.14 22.95 11.21 22.05 9.15 20.01L9.13 20.01Z" fill="#359740" fill-opacity="1.000000" fill-rule="nonzero"/>
</svg>
