<svg width="28.000000" height="28.000000" viewBox="0 0 28 28" fill="none" xmlns="http://www.w3.org/2000/svg" xmlns:xlink="http://www.w3.org/1999/xlink">
	<desc>
			Created with Pixso.
	</desc>
	<defs>
		<clipPath id="clip23_2663">
			<rect id="Frame" rx="-0.500000" width="27.000000" height="27.000000" transform="translate(0.500000 0.500000)" fill="white" fill-opacity="0"/>
		</clipPath>
	</defs>
	<rect id="Frame" rx="-0.500000" width="27.000000" height="27.000000" transform="translate(0.500000 0.500000)" fill="#FFFFFF" fill-opacity="0"/>
	<g clip-path="url(#clip23_2663)">
		<path id="Vector" d="M17.98 19.76C17.83 19.76 17.67 19.74 17.5 19.69C16.33 19.37 15.04 19.74 14.22 20.63C13.88 21 13.41 21.21 12.91 21.21C11.93 21.21 11.13 20.41 11.13 19.42C11.13 19.35 11.14 19.26 11.15 19.15C11.29 18.28 11.07 17.41 10.56 16.7C10.04 16 9.26 15.52 8.4 15.39C7.89 15.31 7.5 14.86 7.5 14.35C7.5 14.08 7.6 13.84 7.79 13.63C8.43 12.94 8.75 11.99 8.64 11.05C8.53 10.11 8.02 9.26 7.24 8.72C6.95 8.52 6.53 8.59 6.33 8.88C6.12 9.18 6.19 9.59 6.49 9.79C6.96 10.12 7.27 10.63 7.33 11.2C7.4 11.76 7.21 12.33 6.82 12.75C6.53 13.07 6.19 13.6 6.19 14.36C6.19 15.52 7.06 16.53 8.21 16.71C8.72 16.78 9.19 17.07 9.5 17.49C9.81 17.91 9.94 18.43 9.85 18.96C9.82 19.15 9.81 19.3 9.81 19.43C9.81 21.14 11.21 22.53 12.91 22.53C13.79 22.53 14.59 22.17 15.19 21.52C15.68 20.99 16.46 20.77 17.16 20.96C17.44 21.04 17.72 21.08 17.99 21.08C18.35 21.08 18.64 20.78 18.64 20.42C18.63 20.06 18.34 19.76 17.98 19.76Z" fill="#359740" fill-opacity="1.000000" fill-rule="nonzero"/>
		<path id="Vector" d="M21.72 21.38C22.54 20.49 23.04 19.29 23.04 17.98C23.04 17.3 22.76 16.55 22.53 15.96C23.64 15.03 24.5 13.75 24.5 12.18C24.5 9.38 22.22 7.12 19.43 7.12C18.86 7.12 18.44 7.26 17.93 7.43C17.42 5.61 15.62 4.22 13.63 4.22C12.7 4.22 12.08 4.31 11.37 4.81C10.58 3.88 9.16 3.5 7.84 3.5C5.44 3.5 3.5 5.44 3.5 7.84C3.5 9.32 4.33 10.59 5.46 11.37C4.75 12.14 4.22 13.22 4.22 14.36C4.22 16.53 6 18.27 8.09 18.59C8.05 18.84 7.84 19.16 7.84 19.43C7.84 22.23 10.11 24.5 12.91 24.5C14.38 24.5 15.69 23.53 16.62 22.53C16.98 22.8 17.51 23.04 17.98 23.04C18.99 23.04 19.93 22.74 20.72 22.24C21.2 22.93 21.62 23.58 21.96 24.16C22.08 24.38 22.3 24.5 22.53 24.5C22.64 24.5 22.75 24.47 22.85 24.41C23.17 24.23 23.28 23.83 23.1 23.52C22.72 22.87 22.26 22.15 21.72 21.38ZM17.4 21.48C17.17 21.3 16.9 21.21 16.62 21.21C16.27 21.21 15.91 21.36 15.66 21.63C15.12 22.21 14.05 23.18 12.91 23.18C10.86 23.18 9.2 21.55 9.15 19.53C9.17 19.49 9.18 19.47 9.19 19.44C9.26 19.26 9.35 19.05 9.39 18.79C9.44 18.44 9.36 18.09 9.15 17.81C8.94 17.53 8.63 17.34 8.29 17.29C6.93 17.09 5.53 15.93 5.53 14.36C5.53 13.65 5.86 12.87 6.43 12.26C6.68 11.97 6.81 11.6 6.77 11.22C6.73 10.84 6.53 10.5 6.21 10.29C5.32 9.68 4.81 8.78 4.81 7.84C4.81 6.17 6.17 4.81 7.84 4.81C8.95 4.81 9.92 5.14 10.37 5.66C10.64 5.96 11 6.12 11.37 6.12C11.63 6.12 11.9 6.04 12.12 5.88C12.52 5.6 12.83 5.53 13.63 5.53C15 5.53 16.31 6.5 16.67 7.79C16.77 8.13 17.01 8.42 17.32 8.59C17.51 8.69 17.72 8.75 17.93 8.75C18.07 8.75 18.21 8.73 18.35 8.68L18.39 8.67C18.86 8.51 19.1 8.43 19.42 8.43C21.5 8.43 23.18 10.12 23.18 12.18C23.18 13.44 22.36 14.38 21.68 14.95C21.24 15.32 21.09 15.92 21.31 16.46C21.44 16.8 21.73 17.5 21.73 17.98C21.73 18.85 21.43 19.66 20.93 20.29C20.05 19.13 19.05 17.89 17.99 16.66L20.49 11.67C20.65 11.34 20.52 10.95 20.19 10.79C19.87 10.62 19.47 10.75 19.31 11.08L17.05 15.59C16.04 14.45 15 13.33 13.98 12.28L14.64 8.19C14.7 7.83 14.45 7.5 14.09 7.44C13.74 7.38 13.4 7.62 13.34 7.98L12.83 11.13C12.1 10.39 11.38 9.71 10.71 9.12L10.71 7.43C10.71 7.07 10.42 6.78 10.06 6.78C9.7 6.78 9.4 7.07 9.4 7.43L9.4 8C8.73 7.47 8.16 7.07 7.73 6.85C7.4 6.68 7.01 6.82 6.85 7.14C6.68 7.47 6.82 7.86 7.14 8.02C7.71 8.31 8.57 8.96 9.58 9.85C9.6 9.86 9.61 9.87 9.62 9.89C10.68 10.82 11.91 12.01 13.19 13.34L9.4 13.34C9.04 13.34 8.75 13.63 8.75 14C8.75 14.36 9.04 14.65 9.4 14.65L14.36 14.65C14.38 14.65 14.4 14.64 14.43 14.64C15.09 15.35 15.76 16.1 16.41 16.84L12.51 17.96C12.16 18.06 11.95 18.42 12.06 18.77C12.14 19.05 12.39 19.25 12.68 19.25C12.74 19.25 12.8 19.24 12.87 19.22L17.35 17.93C18.29 19.04 19.17 20.14 19.94 21.17C19.37 21.53 18.69 21.74 17.97 21.74C17.9 21.73 17.65 21.65 17.4 21.48Z" fill="#359740" fill-opacity="1.000000" fill-rule="nonzero"/>
	</g>
</svg>
