<svg width="32.000000" height="32.000000" viewBox="0 0 32 32" fill="none" xmlns="http://www.w3.org/2000/svg" xmlns:xlink="http://www.w3.org/1999/xlink">
	<desc>
			Created with Pixso.
	</desc>
	<defs>
		<clipPath id="clip23_2676">
			<rect id="Frame" rx="-0.500000" width="31.000000" height="31.000000" transform="translate(0.500000 0.500000)" fill="white" fill-opacity="0"/>
		</clipPath>
	</defs>
	<rect id="Frame" rx="-0.500000" width="31.000000" height="31.000000" transform="translate(0.500000 0.500000)" fill="#FFFFFF" fill-opacity="0"/>
	<g clip-path="url(#clip23_2676)">
		<path id="Vector" d="M18.93 5.8C18.74 5.63 18.49 5.55 18.23 5.61L17.99 5.66C17.6 5.62 17.2 5.59 16.79 5.59C15.55 5.59 14.35 5.8 13.24 6.18L12.7 4.55C12.61 4.25 12.34 4.03 12.03 4C11.72 3.96 11.42 4.11 11.26 4.39L9.81 6.86C8.82 6.11 7.61 5.59 6.39 5.59C5.95 5.59 5.59 5.95 5.59 6.39C5.59 6.83 5.95 7.19 6.39 7.19C7.32 7.19 8.25 7.64 8.98 8.24L4.35 11.33C4.05 11.52 3.93 11.89 4.03 12.23C4.13 12.56 4.44 12.79 4.79 12.79L6.34 12.79C5.86 14.03 5.59 15.39 5.59 16.79C5.59 16.99 5.61 17.19 5.62 17.39C5.57 17.55 5.59 17.73 5.65 17.88C6.19 23.55 10.98 28 16.79 28C22.98 28 27.99 22.98 27.99 16.79C27.99 11.34 24.1 6.8 18.93 5.8ZM16.79 26.39C11.86 26.39 7.79 22.66 7.25 17.87L8.02 17.14C8.1 19.27 8.94 21.39 10.58 23.02C12.29 24.73 14.54 25.59 16.8 25.59C19.06 25.59 21.3 24.74 23.02 23.02C23.34 22.71 23.34 22.2 23.02 21.89C22.71 21.58 22.21 21.58 21.9 21.89C19.09 24.7 14.52 24.7 11.71 21.89C9.98 20.15 9.31 17.74 9.73 15.48L10.08 15.14L12.97 18.88C13.11 19.08 13.35 19.19 13.59 19.19C13.68 19.19 13.77 19.18 13.85 19.15C14.18 19.04 14.39 18.74 14.39 18.39L14.39 12.7L20.09 11.99C20.45 11.94 20.74 11.66 20.78 11.3C20.83 10.94 20.63 10.59 20.3 10.45L16.92 9.07L18.57 7.36C23.02 8.2 26.39 12.11 26.39 16.79C26.39 22.09 22.09 26.39 16.79 26.39ZM10.03 9.46C10.05 9.45 10.05 9.44 10.06 9.43C10.27 9.78 10.39 10.11 10.39 10.39C10.39 10.83 10.75 11.19 11.19 11.19C11.63 11.19 11.99 10.83 11.99 10.39C11.99 9.63 11.61 8.78 10.98 8L11.73 6.73L12.07 7.79C12.2 8.17 12.59 8.4 12.99 8.32L16.01 7.7L14.94 8.81C14.75 9 14.67 9.27 14.73 9.53C14.78 9.79 14.96 10 15.21 10.11L16.86 10.78L13.49 11.2C13.1 11.25 12.79 11.59 12.79 11.99L12.79 16.04L10.79 13.44C10.66 13.26 10.44 13.15 10.22 13.13C10.2 13.13 10.18 13.13 10.16 13.13C9.95 13.13 9.75 13.21 9.6 13.35L7.98 14.92L8.76 12.2C8.83 11.97 8.78 11.71 8.63 11.51C8.48 11.31 8.24 11.19 7.99 11.19L7.43 11.19L10.03 9.46Z" fill="#359740" fill-opacity="1.000000" fill-rule="nonzero"/>
	</g>
</svg>
