<svg width="21.365616" height="21.385559" viewBox="0 0 21.3656 21.3856" fill="none" xmlns="http://www.w3.org/2000/svg" xmlns:xlink="http://www.w3.org/1999/xlink">
	<desc>
			Created with Pixso.
	</desc>
	<defs/>
	<path id="Vector" d="M18.82 5.61C17.57 3.71 15.62 2.51 13.52 2.17C13.54 2.03 13.52 1.87 13.44 1.73C13.29 1.47 12.99 1.32 12.67 1.38L8.35 2.25L7.75 0.47C7.66 0.21 7.43 0.03 7.15 0C6.87 -0.03 6.6 0.1 6.46 0.34L5.17 2.47C4.29 1.82 3.22 1.38 2.13 1.38C1.74 1.38 1.42 1.69 1.42 2.07C1.42 2.45 1.74 2.76 2.13 2.76C2.96 2.76 3.78 3.14 4.44 3.66L0.31 6.32C0.05 6.49 -0.07 6.8 0.03 7.09C0.11 7.38 0.39 7.58 0.7 7.58L2.61 7.58L1.44 11.53C1.35 11.84 1.48 12.15 1.76 12.31C1.87 12.38 2 12.4 2.13 12.4C2.14 14.66 3.18 16.84 5.08 18.25C7.89 20.33 11.99 21.38 17.26 21.38C17.46 21.38 17.66 21.38 17.86 21.37C19.51 21.35 20.92 20.13 21.12 18.53C21.8 13.33 21.02 8.98 18.82 5.61ZM19.71 18.36C19.59 19.28 18.79 19.98 17.85 19.99C12.61 20.07 8.61 19.12 5.95 17.15C4.08 15.77 3.25 13.46 3.66 11.24L4.69 10.29C3.75 12.56 4.42 15.16 6.38 16.61C8.81 18.4 12.47 19.31 17.26 19.31C17.45 19.31 17.65 19.31 17.85 19.31C18.24 19.3 18.55 18.98 18.54 18.6C18.54 18.22 18.22 17.93 17.83 17.93C17.83 17.93 17.83 17.93 17.82 17.93C13.08 18.01 9.52 17.18 7.25 15.51C5.73 14.39 5.26 12.29 6.14 10.52L7.99 12.84C8.11 13 8.33 13.1 8.54 13.1C8.62 13.1 8.7 13.09 8.77 13.06C9.06 12.97 9.25 12.71 9.25 12.41L9.25 7.5L14.33 6.89C14.65 6.85 14.9 6.6 14.95 6.29C14.99 5.98 14.81 5.69 14.51 5.56L11.51 4.37L12.42 3.45C14.45 3.49 16.42 4.52 17.61 6.34C19.63 9.45 20.35 13.49 19.71 18.36ZM5.37 4.71C5.38 4.7 5.38 4.69 5.39 4.69C5.58 4.98 5.69 5.27 5.69 5.51C5.69 5.89 6.01 6.2 6.4 6.2C6.8 6.2 7.12 5.89 7.12 5.51C7.12 4.86 6.77 4.12 6.22 3.45L6.88 2.36L7.19 3.27C7.3 3.6 7.66 3.8 8.01 3.73L10.69 3.19L9.74 4.15C9.57 4.32 9.5 4.55 9.55 4.77C9.6 4.99 9.76 5.18 9.98 5.27L11.45 5.85L8.45 6.21C8.1 6.25 7.83 6.55 7.83 6.89L7.83 10.38L6.05 8.14C5.93 7.98 5.73 7.89 5.53 7.87C5.52 7.87 5.5 7.87 5.48 7.87C5.3 7.87 5.12 7.94 4.99 8.07L3.55 9.42L4.24 7.07C4.3 6.87 4.26 6.65 4.12 6.48C3.99 6.31 3.77 6.2 3.55 6.2L3.05 6.2L5.37 4.71Z" fill="#359740" fill-opacity="1.000000" fill-rule="nonzero"/>
</svg>
