<svg width="28.000000" height="28.000000" viewBox="0 0 28 28" fill="none" xmlns="http://www.w3.org/2000/svg" xmlns:xlink="http://www.w3.org/1999/xlink">
	<desc>
			Created with Pixso.
	</desc>
	<defs>
		<clipPath id="clip23_2652">
			<rect id="Frame 15" rx="-0.375000" width="27.250002" height="27.250002" transform="translate(0.375000 0.375000)" fill="white" fill-opacity="0"/>
		</clipPath>
	</defs>
	<g clip-path="url(#clip23_2652)">
		<path id="Vector 2" d="M7.01 6.53C7.24 5.81 17.56 2.89 18.16 3.57C18.65 4.11 18.56 5.47 18.4 5.73L18.78 5.88L22.19 18.71C22.22 18.95 22.07 19.46 21.15 19.57L11.89 22.03C11.63 22.1 11.05 22.05 10.85 21.31L7.31 8.93L7.48 8.63C7.28 8.41 6.82 7.12 7.01 6.53Z" stroke="#359740" stroke-opacity="1.000000" stroke-width="1.500000"/>
		<path id="Vector 1" d="M4.95 15.05C4.69 14.89 3.95 13.77 4.03 13.15C4.14 12.37 14.72 6.54 15.5 7.02C16.12 7.41 16.29 8.76 16.17 9.06L16.61 9.09L22.75 20.59C22.83 20.82 22.76 21.36 21.79 21.73L12.28 26.81C12.01 26.96 11.37 27.08 11.02 26.41L4.82 15.39L4.95 15.05Z" fill="#FFFFFF" fill-opacity="1.000000" fill-rule="evenodd"/>
		<path id="Vector 1" d="M4.03 13.15C4.14 12.37 14.72 6.54 15.5 7.02C16.12 7.41 16.29 8.76 16.17 9.06L16.61 9.09L22.75 20.59C22.83 20.82 22.76 21.36 21.79 21.73L12.28 26.81C12.01 26.96 11.37 27.08 11.02 26.41L4.82 15.39L4.95 15.05C4.69 14.89 3.95 13.77 4.03 13.15Z" stroke="#359740" stroke-opacity="1.000000" stroke-width="1.500000"/>
	</g>
</svg>
