<svg width="16" height="17" viewBox="0 0 16 17" fill="none" xmlns="http://www.w3.org/2000/svg">
<path d="M15.7753 15.1511L12.8091 12.2067C13.9605 10.7699 14.5181 8.94635 14.3672 7.11085C14.2164 5.27535 13.3685 3.56745 11.998 2.33834C10.6275 1.10923 8.83851 0.452321 6.9989 0.502697C5.15928 0.553074 3.40887 1.3069 2.10758 2.60918C0.806291 3.91146 0.0530336 5.6632 0.00269517 7.50421C-0.0476432 9.34523 0.608763 11.1356 1.83694 12.5071C3.06512 13.8787 4.77172 14.7272 6.60583 14.8781C8.43994 15.0291 10.2621 14.4711 11.6978 13.3188L14.64 16.2633C14.7143 16.3383 14.8028 16.3978 14.9002 16.4385C14.9976 16.4791 15.1021 16.5 15.2077 16.5C15.3132 16.5 15.4177 16.4791 15.5152 16.4385C15.6126 16.3978 15.701 16.3383 15.7753 16.2633C15.9194 16.1141 16 15.9147 16 15.7072C16 15.4997 15.9194 15.3003 15.7753 15.1511ZM7.21243 13.3188C6.10552 13.3188 5.02346 12.9903 4.10309 12.3749C3.18272 11.7595 2.46538 10.8847 2.04178 9.86129C1.61818 8.83786 1.50735 7.7117 1.7233 6.62523C1.93925 5.53875 2.47228 4.54076 3.25499 3.75746C4.0377 2.97416 5.03493 2.44072 6.12058 2.22461C7.20622 2.00849 8.33153 2.11941 9.35419 2.54333C10.3768 2.96725 11.2509 3.68514 11.8659 4.6062C12.4809 5.52727 12.8091 6.61015 12.8091 7.71791C12.8091 9.20337 12.2195 10.628 11.1699 11.6784C10.1203 12.7287 8.69676 13.3188 7.21243 13.3188Z" fill="#70737C"/>
</svg>
