<svg width="42.000000" height="42.000000" viewBox="0 0 32 32" fill="none" xmlns="http://www.w3.org/2000/svg" xmlns:xlink="http://www.w3.org/1999/xlink">
	<desc>
			Created with Pixso.
	</desc>
	<defs>
		<filter id="filter_91_3158_dd" x="0.000000" y="0.000000" width="32.000000" height="32.000000" filterUnits="userSpaceOnUse" color-interpolation-filters="sRGB">
			<feFlood flood-opacity="0" result="BackgroundImageFix"/>
			<feColorMatrix in="SourceAlpha" type="matrix" values="0 0 0 0 0 0 0 0 0 0 0 0 0 0 0 0 0 0 127 0" result="hardAlpha"/>
			<feOffset dx="0" dy="4"/>
			<feGaussianBlur stdDeviation="1.33333"/>
			<feComposite in2="hardAlpha" operator="out" k2="-1" k3="1"/>
			<feColorMatrix type="matrix" values="0 0 0 0 0 0 0 0 0 0 0 0 0 0 0 0 0 0 0.25 0"/>
			<feBlend mode="normal" in2="BackgroundImageFix" result="effect_dropShadow_1"/>
			<feBlend mode="normal" in="SourceGraphic" in2="effect_dropShadow_1" result="shape"/>
		</filter>
	</defs>
	<g filter="url(#filter_91_3158_dd)">
		<rect id="ant-design:instagram-filled" rx="-0.500000" width="23.000000" height="23.000000" transform="translate(4.500000 0.500000)" fill="#FFFFFF" fill-opacity="0"/>
		<path id="Vector" d="M16 8.87C14.27 8.87 12.87 10.27 12.87 12C12.87 13.72 14.27 15.12 16 15.12C17.72 15.12 19.12 13.72 19.12 12C19.12 10.27 17.72 8.87 16 8.87ZM25.37 12C25.37 10.7 25.38 9.42 25.3 8.13C25.23 6.63 24.89 5.3 23.79 4.2C22.69 3.1 21.36 2.76 19.86 2.69C18.57 2.62 17.29 2.63 16 2.63C14.7 2.63 13.42 2.62 12.13 2.69C10.63 2.76 9.3 3.1 8.2 4.2C7.1 5.3 6.76 6.63 6.69 8.13C6.62 9.42 6.63 10.7 6.63 12C6.63 13.29 6.62 14.57 6.69 15.86C6.76 17.36 7.11 18.69 8.2 19.79C9.3 20.89 10.63 21.23 12.13 21.3C13.42 21.37 14.71 21.36 16 21.36C17.29 21.36 18.57 21.37 19.86 21.3C21.36 21.23 22.7 20.89 23.79 19.79C24.89 18.69 25.23 17.36 25.3 15.86C25.38 14.57 25.37 13.29 25.37 12ZM16 16.8C13.33 16.8 11.19 14.66 11.19 12C11.19 9.33 13.33 7.19 16 7.19C18.66 7.19 20.8 9.33 20.8 12C20.8 14.66 18.66 16.8 16 16.8ZM21 8.11C20.38 8.11 19.88 7.61 19.88 6.99C19.88 6.37 20.38 5.87 21 5.87C21.62 5.87 22.12 6.37 22.12 6.99C22.12 7.14 22.09 7.28 22.04 7.42C21.98 7.56 21.9 7.68 21.79 7.79C21.69 7.89 21.57 7.97 21.43 8.03C21.29 8.09 21.15 8.11 21 8.11Z" fill="#70737C" fill-opacity="1.000000" fill-rule="nonzero"/>
	</g>
</svg>
