<svg width="20.412964" height="15.618439" viewBox="0 0 20.413 15.6184" fill="none" xmlns="http://www.w3.org/2000/svg" xmlns:xlink="http://www.w3.org/1999/xlink">
	<desc>
			Created with Pixso.
	</desc>
	<defs/>
	<path id="Vector" d="M20.25 1.86C20.19 1.78 20.11 1.72 20.02 1.68C19.93 1.63 19.83 1.61 19.73 1.61L5.85 1.61L6.29 2.94L18.86 2.94L17.08 10.94L7.08 10.94L4.03 1.3C4 1.2 3.94 1.1 3.87 1.03C3.79 0.95 3.7 0.9 3.59 0.86L0.86 0.02C0.78 0 0.69 -0.01 0.6 0C0.51 0.01 0.43 0.03 0.35 0.07C0.19 0.16 0.08 0.3 0.02 0.47C-0.03 0.64 -0.01 0.82 0.07 0.98C0.16 1.13 0.3 1.25 0.47 1.3L2.86 2.04L5.92 11.7L4.83 12.6L4.74 12.68C4.47 13 4.32 13.39 4.31 13.8C4.3 14.22 4.43 14.62 4.69 14.94C4.87 15.17 5.1 15.34 5.36 15.46C5.62 15.57 5.91 15.63 6.19 15.61L17.32 15.61C17.5 15.61 17.67 15.54 17.79 15.42C17.92 15.29 17.99 15.12 17.99 14.94C17.99 14.77 17.92 14.6 17.79 14.47C17.67 14.35 17.5 14.28 17.32 14.28L6.09 14.28C6.01 14.28 5.94 14.25 5.87 14.21C5.81 14.17 5.75 14.12 5.71 14.05C5.68 13.98 5.66 13.91 5.66 13.83C5.66 13.75 5.68 13.68 5.71 13.61L7.32 12.28L17.61 12.28C17.77 12.28 17.92 12.23 18.04 12.14C18.16 12.04 18.25 11.91 18.28 11.76L20.39 2.42C20.41 2.33 20.41 2.22 20.39 2.12C20.36 2.03 20.31 1.93 20.25 1.86Z" fill="#359740" fill-opacity="1.000000" fill-rule="nonzero"/>
</svg>
