<svg width="19.428574" height="17.000000" viewBox="0 0 19.4286 17" fill="none" xmlns="http://www.w3.org/2000/svg" xmlns:xlink="http://www.w3.org/1999/xlink">
	<desc>
			Created with Pixso.
	</desc>
	<defs/>
	<path id="Vector" d="M17.65 1.8C16.62 0.78 15.26 0.16 13.8 0.04C12.35 -0.07 10.9 0.33 9.72 1.18C8.49 0.28 6.95 -0.14 5.42 0.03C3.89 0.2 2.48 0.93 1.47 2.08C0.46 3.24 -0.06 4.72 0 6.24C0.06 7.76 0.7 9.2 1.79 10.27L7.83 16.23C8.33 16.72 9.01 17 9.72 17C10.43 17 11.11 16.72 11.62 16.23L17.65 10.27C18.79 9.14 19.42 7.62 19.42 6.03C19.42 4.44 18.79 2.92 17.65 1.8ZM16.28 8.95L10.25 14.9C10.18 14.97 10.1 15.02 10.01 15.06C9.92 15.09 9.82 15.11 9.72 15.11C9.63 15.11 9.53 15.09 9.44 15.06C9.35 15.02 9.27 14.97 9.2 14.9L3.16 8.92C2.4 8.15 1.98 7.12 1.98 6.04C1.98 4.97 2.4 3.93 3.16 3.17C3.94 2.41 4.99 1.99 6.08 1.99C7.17 1.99 8.22 2.41 8.99 3.17C9.08 3.26 9.19 3.33 9.31 3.38C9.43 3.42 9.56 3.45 9.68 3.45C9.81 3.45 9.94 3.42 10.06 3.38C10.18 3.33 10.28 3.26 10.37 3.17C11.15 2.41 12.2 1.99 13.29 1.99C14.38 1.99 15.43 2.41 16.2 3.17C16.98 3.92 17.42 4.95 17.43 6.03C17.45 7.1 17.03 8.14 16.28 8.92L16.28 8.95Z" fill="#359740" fill-opacity="1.000000" fill-rule="nonzero"/>
</svg>
